if (_typeface_js && _typeface_js.loadFace) _typeface_js.loadFace({"glyphs":{"S":{"x_min":29,"x_max":614,"ha":661,"o":"m 590 809 l 470 679 q 335 735 376 735 q 280 710 303 735 q 257 653 257 686 q 376 539 257 588 q 508 472 463 502 q 583 388 553 441 q 614 272 614 334 q 521 72 614 157 q 302 -12 428 -12 q 29 117 164 -12 l 155 265 q 314 178 240 178 q 381 208 349 178 q 413 273 413 239 q 265 396 413 343 q 146 453 181 426 q 86 531 110 480 q 62 636 62 582 q 139 829 62 755 q 341 903 216 903 q 590 809 489 903 "},"¦":{"x_min":335,"x_max":482,"ha":817,"o":"m 335 966 l 482 966 l 482 470 l 335 470 l 335 966 m 335 307 l 482 307 l 482 -187 l 335 -187 l 335 307 "},"/":{"x_min":40,"x_max":487,"ha":507,"o":"m 385 957 l 487 957 l 141 -256 l 40 -256 l 385 957 "},"y":{"x_min":35,"x_max":714,"ha":737,"o":"m 35 583 l 220 583 l 387 243 l 535 583 l 714 583 l 351 -257 l 171 -257 l 301 42 l 35 583 "},"≈":{"x_min":79,"x_max":832,"ha":911,"o":"m 832 777 l 832 626 q 626 531 718 531 q 539 544 580 531 q 414 599 499 558 q 284 641 329 641 q 79 541 187 641 l 79 692 q 294 785 186 785 q 374 772 334 785 q 476 728 414 759 q 570 687 538 698 q 633 677 602 677 q 832 777 720 677 m 832 438 l 832 287 q 626 192 718 192 q 539 205 580 192 q 414 260 499 219 q 284 302 329 302 q 79 202 187 302 l 79 353 q 294 446 186 446 q 374 433 334 446 q 476 389 414 420 q 570 348 538 359 q 633 338 602 338 q 832 438 720 338 "},"Á":{"x_min":43,"x_max":911,"ha":956,"o":"m 397 891 l 547 891 l 911 0 l 717 0 l 646 176 l 305 176 l 235 0 l 43 0 l 397 891 m 473 599 l 369 337 l 580 337 l 473 599 m 373 950 l 468 1153 l 680 1153 l 494 950 l 373 950 "},"g":{"x_min":33,"x_max":643,"ha":735,"o":"m 471 33 l 471 102 q 290 3 392 3 q 106 87 180 3 q 33 299 33 172 q 109 509 33 423 q 293 596 185 596 q 471 502 384 596 l 471 583 l 643 583 l 643 -7 q 612 -120 643 -56 q 507 -213 581 -183 q 335 -244 432 -244 q 140 -198 213 -244 q 36 -42 67 -152 l 230 -42 q 354 -122 287 -122 q 438 -78 405 -122 q 471 33 471 -35 m 218 295 q 257 208 218 250 q 348 166 296 166 q 435 206 399 166 q 472 304 472 246 q 437 402 472 363 q 348 441 402 441 q 255 400 293 441 q 218 295 218 360 "},"²":{"x_min":39,"x_max":455,"ha":507,"o":"m 309 465 l 455 465 l 455 350 l 49 350 l 218 563 q 292 665 270 629 q 315 727 315 701 q 253 788 315 788 q 178 704 181 788 l 39 704 q 100 853 43 802 q 259 905 157 905 q 401 861 348 905 q 454 743 454 817 q 309 465 454 622 "},"–":{"x_min":-8,"x_max":700,"ha":695,"o":"m -8 437 l 700 437 l 700 267 l -8 267 l -8 437 "},"ë":{"x_min":33,"x_max":625,"ha":665,"o":"m 625 250 l 209 250 q 245 159 212 194 q 324 124 279 124 q 449 196 404 124 l 609 143 q 333 -12 520 -12 q 114 71 195 -12 q 33 295 33 154 q 118 508 33 422 q 330 595 204 595 q 540 504 456 595 q 625 277 625 413 l 625 250 m 210 367 l 445 367 q 332 476 420 476 q 249 447 282 476 q 210 367 216 419 m 177 686 q 112 712 138 686 q 86 777 86 738 q 112 841 86 814 q 177 869 139 869 q 242 841 215 869 q 269 777 269 814 q 242 712 269 738 q 177 686 215 686 m 483 686 q 418 712 445 686 q 392 777 392 738 q 418 841 392 814 q 483 869 445 869 q 548 841 521 869 q 575 777 575 814 q 548 712 575 738 q 483 686 522 686 "},"ƒ":{"x_min":-11,"x_max":778,"ha":773,"o":"m 190 576 l 214 719 l 351 719 l 376 852 q 438 969 390 928 q 596 1011 487 1011 q 778 983 688 1011 l 740 830 q 636 848 680 848 q 574 827 591 848 q 543 719 557 807 l 684 719 l 658 576 l 519 576 l 402 -86 q 367 -204 388 -164 q 301 -268 346 -245 q 177 -292 256 -292 q -11 -265 79 -292 l 27 -115 q 145 -131 77 -131 q 201 -105 188 -131 q 225 -16 213 -80 l 326 576 l 190 576 "},"Î":{"x_min":-50,"x_max":411,"ha":361,"o":"m 81 891 l 273 891 l 273 0 l 81 0 l 81 891 m -50 953 l 94 1153 l 270 1153 l 411 953 l 258 953 l 178 1054 l 104 953 l -50 953 "},"e":{"x_min":33,"x_max":625,"ha":665,"o":"m 625 250 l 209 250 q 245 159 212 194 q 324 124 279 124 q 449 196 404 124 l 609 143 q 333 -12 520 -12 q 114 71 195 -12 q 33 295 33 154 q 118 508 33 422 q 330 595 204 595 q 540 504 456 595 q 625 277 625 413 l 625 250 m 210 367 l 445 367 q 332 476 420 476 q 249 447 282 476 q 210 367 216 419 "},"Ã":{"x_min":43,"x_max":911,"ha":956,"o":"m 397 891 l 547 891 l 911 0 l 717 0 l 646 176 l 305 176 l 235 0 l 43 0 l 397 891 m 473 599 l 369 337 l 580 337 l 473 599 m 326 959 l 240 959 l 240 977 q 272 1090 240 1049 q 363 1131 305 1131 q 410 1124 389 1131 q 483 1095 430 1118 q 565 1073 535 1073 q 621 1131 613 1073 l 708 1131 q 587 962 708 962 q 542 966 559 962 q 464 993 524 970 q 372 1017 403 1017 q 326 963 326 1017 l 326 959 "},"J":{"x_min":18,"x_max":503,"ha":593,"o":"m 313 891 l 503 891 l 503 260 q 435 62 503 137 q 257 -12 367 -12 q 114 34 177 -12 q 18 178 51 81 l 157 284 l 157 281 q 171 251 159 280 q 202 198 183 222 q 242 175 221 175 q 293 201 274 175 q 313 272 313 227 l 313 891 "},"»":{"x_min":31,"x_max":656.234375,"ha":695,"o":"m 35 721 l 191 721 l 325 386 l 191 54 l 31 54 l 167 388 l 35 721 m 361 721 l 519 721 l 656 387 l 519 54 l 360 54 l 495 388 l 361 721 "},"∆":{"x_min":8,"x_max":844,"ha":850,"o":"m 452 956 l 844 0 l 8 0 l 452 956 m 402 718 l 99 68 l 671 68 l 402 718 "},"©":{"x_min":-8,"x_max":1031,"ha":1025,"o":"m -8 494 q 144 861 -8 708 q 511 1014 297 1014 q 877 862 724 1014 q 1031 494 1031 711 q 878 127 1031 280 q 511 -25 725 -25 q 144 127 297 -25 q -8 494 -8 280 m 929 494 q 805 789 929 666 q 511 913 682 913 q 216 789 338 913 q 94 494 94 666 q 216 200 94 323 q 511 78 339 78 q 805 200 682 78 q 929 494 929 323 m 637 418 l 747 380 q 507 206 694 206 q 325 285 394 206 q 257 495 257 365 q 328 705 257 627 q 520 783 400 783 q 747 617 686 783 l 637 591 q 516 686 601 686 q 413 637 451 686 q 376 504 376 588 q 410 353 376 405 q 510 302 445 302 q 637 418 603 302 "},"˘":{"x_min":18,"x_max":441,"ha":463,"o":"m 348 875 l 441 875 q 375 730 432 781 q 229 679 318 679 q 83 730 140 679 q 18 875 26 781 l 111 875 q 229 778 119 778 q 348 875 339 778 "},"≥":{"x_min":86,"x_max":840,"ha":926,"o":"m 86 882 l 840 568 l 840 435 l 86 121 l 86 279 l 641 501 l 86 725 l 86 882 m 86 105 l 840 105 l 840 -41 l 86 -41 l 86 105 "},"ò":{"x_min":66,"x_max":669,"ha":737,"o":"m 66 290 q 152 510 66 425 q 373 596 238 596 q 583 508 498 596 q 669 293 669 421 q 583 74 669 161 q 370 -12 498 -12 q 146 79 226 -12 q 66 290 66 171 m 498 290 q 459 393 498 349 q 369 437 420 437 q 276 395 315 437 q 238 296 238 354 q 276 189 238 233 q 369 146 314 146 q 459 188 420 146 q 498 290 498 231 m 474 672 l 353 672 l 168 875 l 380 875 l 474 672 "},"^":{"x_min":78,"x_max":733,"ha":811,"o":"m 78 469 l 334 1011 l 485 1011 l 733 469 l 541 469 l 405 801 l 272 469 l 78 469 "},"«":{"x_min":39,"x_max":665.359375,"ha":695,"o":"m 175 721 l 336 721 l 198 388 l 334 54 l 174 54 l 39 387 l 175 721 m 503 720 l 665 720 l 527 387 l 663 54 l 502 54 l 367 388 l 503 720 "},"D":{"x_min":86,"x_max":822,"ha":882,"o":"m 86 891 l 389 891 q 703 768 584 891 q 822 444 822 645 q 699 121 822 242 q 373 0 577 0 l 86 0 l 86 891 m 279 723 l 279 172 l 354 172 q 549 236 473 172 q 625 451 625 301 q 588 607 625 539 q 482 698 551 674 q 349 723 412 723 l 279 723 "},"∙":{"x_min":71,"x_max":287,"ha":361,"o":"m 225 1066 l 225 1068 l 226 1066 l 225 1066 m 71 433 q 102 509 71 477 q 178 541 134 541 q 255 509 223 541 q 287 433 287 477 q 255 356 287 388 q 178 325 223 325 q 102 356 134 325 q 71 433 71 388 "},"ÿ":{"x_min":35,"x_max":714,"ha":737,"o":"m 35 583 l 220 583 l 387 243 l 535 583 l 714 583 l 351 -257 l 171 -257 l 301 42 l 35 583 m 215 686 q 150 712 176 686 q 124 777 124 738 q 150 841 124 814 q 215 869 177 869 q 280 841 253 869 q 307 777 307 814 q 280 712 307 738 q 215 686 253 686 m 521 686 q 456 712 483 686 q 430 777 430 738 q 456 841 430 814 q 521 869 483 869 q 586 841 559 869 q 613 777 613 814 q 586 712 613 738 q 521 686 560 686 "},"í":{"x_min":75,"x_max":382,"ha":361,"o":"m 94 583 l 268 583 l 268 0 l 94 0 l 94 583 m 75 672 l 170 875 l 382 875 l 196 672 l 75 672 "},"ˆ":{"x_min":1,"x_max":462,"ha":463,"o":"m 1 675 l 145 875 l 321 875 l 462 675 l 309 675 l 229 776 l 155 675 l 1 675 "},"w":{"x_min":16,"x_max":1083,"ha":1100,"o":"m 16 583 l 199 583 l 355 237 l 495 583 l 607 583 l 744 240 l 900 583 l 1083 583 l 817 0 l 677 0 l 551 319 l 422 0 l 279 0 l 16 583 "},"$":{"x_min":66,"x_max":676,"ha":737,"o":"m 322 1015 l 421 1015 l 421 900 q 661 795 527 893 l 563 669 q 421 742 474 731 l 421 518 q 613 411 550 482 q 676 245 676 339 q 610 75 676 144 q 422 -14 544 6 l 422 -219 l 323 -219 l 323 -10 q 176 22 229 -1 q 66 95 122 46 l 153 225 q 322 147 252 158 l 322 358 q 127 480 176 417 q 78 636 78 544 q 141 808 78 724 q 322 904 204 891 l 322 1015 m 321 549 l 321 749 q 270 715 290 743 q 250 658 250 687 q 321 549 250 588 m 423 328 l 422 327 l 422 137 q 501 224 501 151 q 423 328 501 294 "},"∫":{"x_min":7,"x_max":408,"ha":380,"o":"m 408 1193 q 388 1149 408 1166 q 336 1133 368 1133 q 296 1149 311 1133 q 266 1166 280 1166 q 247 1157 254 1166 q 241 1127 241 1147 q 254 953 241 1104 q 268 580 268 803 q 247 98 268 237 q 194 -92 227 -39 q 148 -134 176 -120 q 90 -149 120 -149 q 32 -125 57 -149 q 7 -67 7 -101 q 24 -23 7 -41 q 68 -5 41 -5 q 112 -27 91 -5 q 142 -49 133 -49 q 169 -19 159 -49 q 179 84 179 10 q 175 218 179 109 q 171 599 171 326 q 182 1032 171 925 q 210 1178 194 1139 q 256 1248 229 1225 q 313 1272 284 1272 q 380 1249 352 1272 q 408 1193 408 1227 "},"\\":{"x_min":40,"x_max":486,"ha":507,"o":"m 40 954 l 140 954 l 486 -254 l 389 -254 l 40 954 "},"Ì":{"x_min":-20,"x_max":286,"ha":361,"o":"m 81 891 l 273 891 l 273 0 l 81 0 l 81 891 m 286 950 l 165 950 l -20 1153 l 192 1153 l 286 950 "},"µ":{"x_min":100,"x_max":754,"ha":848,"o":"m 100 720 l 289 720 l 289 394 q 327 185 289 235 q 423 136 366 136 q 505 168 469 136 q 551 248 541 201 q 562 392 562 294 l 562 720 l 754 720 l 754 0 l 578 0 l 578 87 l 575 87 q 432 -17 523 -17 q 350 7 381 -17 q 291 87 318 32 l 289 87 l 289 -277 l 100 -277 l 100 720 "},"Ç":{"x_min":64,"x_max":756,"ha":810,"o":"m 756 843 l 756 626 q 502 713 611 713 q 329 638 394 713 q 264 437 264 563 q 332 246 264 318 q 515 175 401 175 q 756 256 616 175 l 756 40 q 494 -12 599 -12 q 189 119 315 -12 q 64 441 64 251 q 191 769 64 635 q 502 903 319 903 q 756 843 620 903 m 200 -273 l 200 -193 q 327 -202 255 -202 q 409 -184 379 -202 q 440 -138 440 -167 q 416 -96 440 -111 q 352 -81 393 -81 q 264 -93 315 -81 l 282 -26 q 397 -8 341 -8 q 522 -43 475 -8 q 570 -136 570 -79 q 506 -243 570 -201 q 331 -285 443 -285 q 200 -273 255 -285 "},"’":{"x_min":78,"x_max":277,"ha":361,"o":"m 78 891 l 277 891 l 277 721 q 259 617 277 667 q 180 489 241 566 l 99 545 q 171 692 166 618 l 78 692 l 78 891 "},"-":{"x_min":20,"x_max":411,"ha":435,"o":"m 20 379 l 411 379 l 411 204 l 20 204 l 20 379 "},"Q":{"x_min":61,"x_max":959,"ha":1028,"o":"m 832 119 l 941 -6 l 811 -88 l 712 31 q 511 -10 600 -10 q 187 121 314 -10 q 61 458 61 252 q 184 764 61 627 q 509 901 307 901 q 829 770 699 901 q 959 450 959 640 q 832 119 959 254 m 586 178 l 493 288 l 619 371 l 705 269 q 758 440 758 327 q 690 646 758 569 q 509 723 622 723 q 331 646 400 723 q 262 450 262 570 q 328 248 262 327 q 496 170 394 170 q 586 178 534 170 "},"M":{"x_min":45,"x_max":1050,"ha":1100,"o":"m 152 891 l 381 891 l 548 357 l 715 891 l 935 891 l 1050 0 l 867 0 l 788 627 l 592 0 l 504 0 l 304 632 l 230 0 l 45 0 l 152 891 "},"C":{"x_min":64,"x_max":756,"ha":810,"o":"m 756 843 l 756 626 q 502 713 611 713 q 329 638 394 713 q 264 437 264 563 q 332 246 264 318 q 515 175 401 175 q 756 256 616 175 l 756 40 q 494 -12 599 -12 q 189 119 315 -12 q 64 441 64 251 q 191 769 64 635 q 502 903 319 903 q 756 843 620 903 "},"!":{"x_min":33,"x_max":250,"ha":289,"o":"m 45 891 l 237 891 l 237 304 l 45 304 l 45 891 m 33 96 q 64 174 33 142 q 141 206 96 206 q 218 173 186 206 q 250 96 250 141 q 218 20 250 52 q 141 -11 186 -11 q 64 20 96 -11 q 33 96 33 51 "},"ç":{"x_min":49,"x_max":507,"ha":561,"o":"m 505 203 l 505 29 q 356 -12 415 -12 q 137 74 225 -12 q 49 291 49 161 q 130 508 49 422 q 337 595 212 595 q 507 554 425 595 l 507 390 q 368 427 431 427 q 274 391 310 427 q 239 297 239 355 q 274 203 239 239 q 366 168 309 168 q 505 203 419 168 m 76 -273 l 76 -193 q 203 -202 131 -202 q 285 -184 255 -202 q 316 -138 316 -167 q 292 -96 316 -111 q 228 -81 269 -81 q 140 -93 190 -81 l 157 -26 q 272 -8 217 -8 q 397 -43 350 -8 q 445 -136 445 -79 q 381 -243 445 -201 q 207 -285 318 -285 q 76 -273 130 -285 "},"È":{"x_min":92,"x_max":592,"ha":665,"o":"m 92 891 l 592 891 l 592 715 l 284 715 l 284 535 l 592 535 l 592 361 l 284 361 l 284 176 l 592 176 l 592 0 l 92 0 l 92 891 m 438 950 l 317 950 l 132 1153 l 344 1153 l 438 950 "},"{":{"x_min":43,"x_max":507,"ha":541,"o":"m 43 266 l 43 430 q 137 455 108 432 q 179 526 166 479 q 192 672 192 572 l 192 696 q 205 858 192 809 q 251 939 219 908 q 331 984 283 970 q 470 999 378 999 l 507 999 l 507 836 l 498 836 q 392 819 416 836 q 368 739 368 802 q 337 448 365 508 q 241 347 309 388 q 346 216 324 300 q 368 -44 368 131 q 393 -125 368 -108 q 496 -142 418 -142 l 507 -142 l 507 -305 l 470 -305 q 296 -276 351 -305 q 216 -197 241 -247 q 192 -1 192 -147 l 192 22 q 152 225 192 182 q 43 266 113 268 "},"X":{"x_min":25,"x_max":849,"ha":882,"o":"m 54 891 l 258 891 l 437 618 l 623 891 l 821 891 l 538 467 l 849 0 l 649 0 l 438 316 l 227 0 l 25 0 l 338 466 l 54 891 "},"ô":{"x_min":66,"x_max":669,"ha":737,"o":"m 66 290 q 152 510 66 425 q 373 596 238 596 q 583 508 498 596 q 669 293 669 421 q 583 74 669 161 q 370 -12 498 -12 q 146 79 226 -12 q 66 290 66 171 m 498 290 q 459 393 498 349 q 369 437 420 437 q 276 395 315 437 q 238 296 238 354 q 276 189 238 233 q 369 146 314 146 q 459 188 420 146 q 498 290 498 231 m 138 675 l 282 875 l 458 875 l 599 675 l 446 675 l 366 776 l 292 675 l 138 675 "},"¼":{"x_min":103,"x_max":1156,"ha":1258,"o":"m 124 897 l 313 897 l 313 352 l 181 352 l 181 783 l 103 783 l 124 897 m 886 904 l 1004 904 l 302 -24 l 184 -24 l 886 904 m 996 534 l 1107 534 l 1107 205 l 1156 205 l 1156 99 l 1107 99 l 1107 -20 l 977 -20 l 977 99 l 746 99 l 746 204 l 996 534 m 974 370 l 845 206 l 978 206 l 978 370 l 974 370 "},"#":{"x_min":53,"x_max":874,"ha":928,"o":"m 53 690 l 262 690 l 319 950 l 447 950 l 391 690 l 630 690 l 686 950 l 815 950 l 760 690 l 874 690 l 874 561 l 734 561 l 691 356 l 874 356 l 874 228 l 668 228 l 611 -29 l 484 -29 l 539 228 l 296 228 l 242 -29 l 114 -29 l 167 228 l 53 228 l 53 356 l 194 356 l 237 561 l 53 561 l 53 690 m 366 561 l 323 357 l 563 357 l 607 561 l 366 561 "},"Ê":{"x_min":92,"x_max":592,"ha":665,"o":"m 92 891 l 592 891 l 592 715 l 284 715 l 284 535 l 592 535 l 592 361 l 284 361 l 284 176 l 592 176 l 592 0 l 92 0 l 92 891 m 104 953 l 248 1153 l 424 1153 l 565 953 l 412 953 l 332 1054 l 258 953 l 104 953 "},")":{"x_min":49.90625,"x_max":346,"ha":435,"o":"m 49 836 l 150 920 q 299 644 253 794 q 346 350 346 495 q 153 -224 346 16 l 49 -139 q 212 348 212 73 q 49 836 212 623 "},"Å":{"x_min":43,"x_max":911,"ha":956,"o":"m 397 891 l 547 891 l 911 0 l 717 0 l 646 176 l 305 176 l 235 0 l 43 0 l 397 891 m 473 599 l 369 337 l 580 337 l 473 599 m 478 1185 q 572 1146 533 1185 q 611 1053 611 1108 q 571 959 611 998 q 478 920 532 920 q 384 959 423 920 q 345 1053 345 998 q 384 1146 345 1108 q 478 1185 423 1185 m 478 993 q 520 1010 502 993 q 538 1053 538 1028 q 520 1095 538 1077 q 478 1113 503 1113 q 435 1095 453 1113 q 418 1053 418 1077 q 435 1010 418 1028 q 478 993 453 993 "},"ø":{"x_min":66,"x_max":668,"ha":737,"o":"m 596 609 l 660 551 l 601 487 q 668 290 668 397 q 581 71 668 157 q 360 -14 494 -14 q 192 37 295 -14 l 133 -27 l 73 30 l 130 94 q 80 189 95 147 q 66 290 66 231 q 151 509 66 424 q 372 595 237 595 q 450 583 416 595 q 536 543 485 571 l 596 609 m 250 227 l 422 417 q 370 436 395 436 q 274 394 312 436 q 237 288 237 353 q 250 227 237 259 m 480 354 l 306 162 q 363 144 342 144 q 458 186 419 144 q 497 288 497 228 q 480 354 497 316 "},"â":{"x_min":36,"x_max":643,"ha":733,"o":"m 469 0 l 469 100 l 466 100 q 384 15 425 41 q 281 -11 342 -11 q 107 77 179 -11 q 36 291 36 165 q 112 505 36 416 q 294 595 189 595 q 384 572 344 595 q 469 502 424 550 l 469 583 l 643 583 l 643 0 l 469 0 m 341 421 q 255 379 290 421 q 221 276 221 338 q 253 182 221 218 q 340 147 286 147 q 428 188 391 147 q 465 287 465 229 q 428 381 465 341 q 341 421 391 421 m 136 675 l 280 875 l 456 875 l 597 675 l 444 675 l 364 776 l 290 675 l 136 675 "},"}":{"x_min":33,"x_max":497,"ha":541,"o":"m 497 430 l 497 266 q 402 240 432 263 q 360 169 373 216 q 348 22 348 122 l 348 -1 q 331 -178 348 -135 q 288 -245 314 -222 q 222 -286 262 -268 q 68 -305 181 -305 l 33 -305 l 33 -142 l 42 -142 q 146 -125 121 -142 q 172 -44 172 -108 q 195 222 172 141 q 298 347 219 303 q 198 459 222 392 q 172 739 174 526 q 147 819 172 802 q 41 836 123 836 l 33 836 l 33 999 l 68 999 q 213 983 166 999 q 292 934 261 967 q 335 853 322 902 q 348 696 348 804 l 348 672 q 389 467 348 507 q 497 430 430 427 "},"‰":{"x_min":78,"x_max":1690,"ha":1736,"o":"m 78 675 q 143 889 78 807 q 314 971 209 971 q 480 887 415 971 q 546 674 546 804 q 481 452 546 536 q 312 368 417 368 q 143 453 209 368 q 78 675 78 539 m 415 664 q 391 823 415 773 q 314 873 367 873 q 231 825 256 873 q 207 671 207 778 q 312 465 207 465 q 415 664 415 465 m 828 971 l 937 971 l 386 -106 l 279 -106 l 828 971 m 1223 202 q 1288 415 1223 334 q 1459 497 1354 497 q 1625 414 1560 497 q 1690 201 1690 332 q 1625 -21 1690 62 q 1456 -106 1561 -106 q 1288 -19 1354 -106 q 1223 202 1223 66 m 1560 191 q 1536 349 1560 299 q 1459 400 1512 400 q 1376 352 1401 400 q 1351 198 1351 304 q 1456 -8 1351 -8 q 1560 191 1560 -8 m 668 202 q 733 415 668 334 q 904 497 799 497 q 1070 413 1005 497 q 1136 199 1136 330 q 1071 -21 1136 62 q 902 -106 1007 -106 q 733 -20 799 -106 q 668 202 668 64 m 1006 191 q 981 349 1006 299 q 904 400 957 400 q 821 352 846 400 q 796 198 796 304 q 902 -8 796 -8 q 1006 191 1006 -8 "},"Ä":{"x_min":43,"x_max":911,"ha":956,"o":"m 397 891 l 547 891 l 911 0 l 717 0 l 646 176 l 305 176 l 235 0 l 43 0 l 397 891 m 473 599 l 369 337 l 580 337 l 473 599 m 324 963 q 259 989 285 963 q 233 1054 233 1015 q 259 1118 233 1091 q 324 1146 286 1146 q 389 1118 362 1146 q 416 1054 416 1091 q 389 989 416 1015 q 324 963 362 963 m 630 963 q 565 989 592 963 q 539 1054 539 1015 q 565 1118 539 1091 q 630 1146 592 1146 q 695 1118 668 1146 q 722 1054 722 1091 q 695 989 722 1015 q 630 963 669 963 "},"¸":{"x_min":26,"x_max":396,"ha":463,"o":"m 26 -273 l 26 -193 q 153 -202 81 -202 q 235 -184 205 -202 q 266 -138 266 -167 q 242 -96 266 -111 q 178 -81 219 -81 q 90 -93 141 -81 l 108 -26 q 223 -8 167 -8 q 348 -43 301 -8 q 396 -136 396 -79 q 332 -243 396 -201 q 157 -285 269 -285 q 26 -273 81 -285 "},"a":{"x_min":36,"x_max":643,"ha":733,"o":"m 469 0 l 469 100 l 466 100 q 384 15 425 41 q 281 -11 342 -11 q 107 77 179 -11 q 36 291 36 165 q 112 505 36 416 q 294 595 189 595 q 384 572 344 595 q 469 502 424 550 l 469 583 l 643 583 l 643 0 l 469 0 m 341 421 q 255 379 290 421 q 221 276 221 338 q 253 182 221 218 q 340 147 286 147 q 428 188 391 147 q 465 287 465 229 q 428 381 465 341 q 341 421 391 421 "},"—":{"x_min":-16,"x_max":1399,"ha":1389,"o":"m -16 434 l 1399 434 l 1399 267 l -16 267 l -16 434 "},"=":{"x_min":86,"x_max":840,"ha":926,"o":"m 86 695 l 840 695 l 840 549 l 86 549 l 86 695 m 86 371 l 840 371 l 840 225 l 86 225 l 86 371 "},"N":{"x_min":81,"x_max":867,"ha":956,"o":"m 679 891 l 867 891 l 867 0 l 681 0 l 273 577 l 273 0 l 81 0 l 81 891 l 271 891 l 679 318 l 679 891 "},"˚":{"x_min":98,"x_max":364,"ha":463,"o":"m 231 907 q 325 868 286 907 q 364 775 364 830 q 324 681 364 720 q 231 642 285 642 q 137 681 176 642 q 98 775 98 720 q 137 868 98 830 q 231 907 176 907 m 231 715 q 273 732 255 715 q 291 775 291 750 q 273 817 291 799 q 231 835 256 835 q 188 817 206 835 q 171 775 171 799 q 188 732 171 750 q 231 715 206 715 "},"ú":{"x_min":81,"x_max":654,"ha":737,"o":"m 81 583 l 257 583 l 257 302 q 287 201 257 242 q 364 161 318 161 q 445 200 412 161 q 478 298 478 239 l 478 583 l 654 583 l 654 243 q 571 62 654 135 q 366 -11 489 -11 q 158 62 236 -11 q 81 257 81 135 l 81 583 m 263 672 l 358 875 l 570 875 l 384 672 l 263 672 "},"2":{"x_min":62,"x_max":673,"ha":737,"o":"m 426 161 l 673 161 l 673 0 l 69 0 l 363 375 q 455 510 428 457 q 483 609 483 563 q 450 692 483 659 q 367 725 417 725 q 285 683 310 725 q 254 555 259 642 l 62 555 q 154 798 61 712 q 384 885 247 885 q 592 810 511 885 q 673 620 673 736 q 578 369 673 507 l 527 294 q 450 190 496 248 l 426 161 "},"ü":{"x_min":81,"x_max":654,"ha":737,"o":"m 81 583 l 257 583 l 257 302 q 287 201 257 242 q 364 161 318 161 q 445 200 412 161 q 478 298 478 239 l 478 583 l 654 583 l 654 243 q 571 62 654 135 q 366 -11 489 -11 q 158 62 236 -11 q 81 257 81 135 l 81 583 m 214 686 q 149 712 175 686 q 123 777 123 738 q 149 841 123 814 q 214 869 176 869 q 279 841 252 869 q 306 777 306 814 q 279 712 306 738 q 214 686 252 686 m 520 686 q 455 712 482 686 q 429 777 429 738 q 455 841 429 814 q 520 869 482 869 q 585 841 558 869 q 612 777 612 814 q 585 712 612 738 q 520 686 559 686 "},"¯":{"x_min":-10,"x_max":705,"ha":695,"o":"m -10 993 l -10 1063 l 705 1063 l 705 993 l -10 993 "},"Z":{"x_min":49,"x_max":747,"ha":810,"o":"m 102 891 l 747 891 l 345 184 l 733 184 l 733 0 l 49 0 l 452 708 l 102 708 l 102 891 "},"u":{"x_min":81,"x_max":654,"ha":737,"o":"m 81 583 l 257 583 l 257 302 q 287 201 257 242 q 364 161 318 161 q 445 200 412 161 q 478 298 478 239 l 478 583 l 654 583 l 654 243 q 571 62 654 135 q 366 -11 489 -11 q 158 62 236 -11 q 81 257 81 135 l 81 583 "},"":{"x_min":28,"x_max":643,"ha":737,"o":"m 643 0 l 471 0 l 471 587 q 446 705 471 669 q 367 742 422 742 q 304 714 331 742 q 278 652 278 687 l 278 583 l 369 583 l 369 426 l 281 426 l 281 0 l 106 0 l 106 426 l 28 426 l 28 583 l 103 583 l 103 691 q 175 841 103 774 q 362 908 248 908 q 494 880 436 908 q 587 807 552 853 q 633 716 623 762 q 643 573 643 669 l 643 0 "},"˜":{"x_min":-8,"x_max":460,"ha":463,"o":"m 78 682 l -8 682 l -8 700 q 24 813 -8 772 q 115 854 57 854 q 162 847 141 854 q 235 818 182 841 q 317 796 287 796 q 373 854 365 796 l 460 854 q 339 685 460 685 q 294 689 311 685 q 216 716 276 693 q 124 740 155 740 q 78 686 78 740 l 78 682 "},"Ó":{"x_min":61,"x_max":958,"ha":1028,"o":"m 61 445 q 191 771 61 642 q 501 900 322 900 q 828 770 699 900 q 958 444 958 641 q 829 118 958 248 q 507 -11 701 -11 q 186 117 312 -11 q 61 445 61 246 m 510 722 q 329 644 398 724 q 261 439 261 565 q 330 243 261 321 q 507 165 400 165 q 688 242 619 165 q 757 445 757 319 q 689 644 757 569 q 510 722 621 719 m 409 950 l 504 1153 l 716 1153 l 530 950 l 409 950 "},"k":{"x_min":78,"x_max":647,"ha":665,"o":"m 78 905 l 250 905 l 250 355 l 421 583 l 631 583 l 437 326 l 647 0 l 451 0 l 250 308 l 250 0 l 78 0 l 78 905 "},"ˇ":{"x_min":1,"x_max":462,"ha":463,"o":"m 1 875 l 155 875 l 229 773 l 309 875 l 462 875 l 321 675 l 145 675 l 1 875 "},"Ù":{"x_min":90,"x_max":786,"ha":882,"o":"m 90 891 l 279 891 l 279 346 q 321 224 279 270 q 431 178 363 178 q 553 224 510 178 q 597 355 597 270 l 597 891 l 786 891 l 786 314 q 746 156 786 238 q 625 31 707 74 q 442 -12 543 -12 q 174 90 259 -12 q 90 304 90 192 l 90 891 m 546 950 l 425 950 l 240 1153 l 452 1153 l 546 950 "},"€":{"x_min":8,"x_max":735,"ha":766,"o":"m 735 40 q 499 -10 596 -10 q 271 68 367 -10 q 125 295 174 147 l 8 295 l 45 394 l 112 394 q 111 430 111 399 q 112 466 111 460 l 9 466 l 44 565 l 127 565 q 266 794 166 713 q 506 876 367 876 q 735 818 612 876 l 735 625 q 506 708 603 708 q 316 565 371 708 l 715 565 l 680 466 l 292 466 l 291 425 l 292 394 l 654 394 l 616 295 l 317 295 q 517 156 372 156 q 735 233 610 156 l 735 40 "},"¢":{"x_min":87,"x_max":565,"ha":593,"o":"m 474 778 l 565 778 l 501 574 l 544 554 l 544 390 q 452 422 514 405 l 374 172 q 406 168 395 168 q 543 203 451 168 l 543 31 q 379 -12 460 -12 q 318 -2 358 -12 l 238 -253 l 148 -253 l 237 29 q 87 290 87 128 q 110 414 87 355 q 178 517 134 473 q 272 577 223 561 q 416 593 321 593 l 474 778 m 296 216 l 363 419 q 270 294 270 394 q 296 216 270 261 "},"Ω":{"x_min":37,"x_max":1038,"ha":1067,"o":"m 313 139 q 187 215 234 172 q 85 362 119 276 q 52 549 52 447 q 181 889 52 760 q 526 1019 311 1019 q 791 965 684 1019 q 960 799 897 911 q 1024 551 1024 687 q 960 306 1024 414 q 764 141 897 199 l 989 156 l 1038 156 l 1038 0 l 602 0 l 602 164 q 706 235 667 196 q 783 367 757 290 q 810 531 810 445 q 732 784 810 698 q 533 870 654 870 q 340 782 418 870 q 263 534 263 694 q 292 363 263 442 q 377 229 322 284 q 475 164 412 193 l 475 0 l 37 0 l 37 156 l 103 156 l 313 139 "},"ß":{"x_min":106,"x_max":710,"ha":737,"o":"m 480 463 l 581 439 q 671 367 632 427 q 710 239 710 307 q 639 60 710 132 q 464 -11 569 -11 q 337 11 395 -11 l 337 155 q 422 139 392 139 q 509 171 476 139 q 543 255 543 203 q 503 351 543 311 q 407 391 464 391 l 376 391 l 376 540 l 399 540 q 484 569 452 540 q 516 647 516 599 q 484 728 516 698 q 402 758 453 758 q 315 723 350 758 q 280 637 280 688 l 280 0 l 106 0 l 106 639 q 180 822 106 739 q 394 905 254 905 q 600 840 521 905 q 679 671 679 775 q 650 569 679 621 q 587 504 622 517 l 480 466 l 480 463 "},"é":{"x_min":33,"x_max":625,"ha":665,"o":"m 625 250 l 209 250 q 245 159 212 194 q 324 124 279 124 q 449 196 404 124 l 609 143 q 333 -12 520 -12 q 114 71 195 -12 q 33 295 33 154 q 118 508 33 422 q 330 595 204 595 q 540 504 456 595 q 625 277 625 413 l 625 250 m 210 367 l 445 367 q 332 476 420 476 q 249 447 282 476 q 210 367 216 419 m 227 672 l 322 875 l 534 875 l 348 672 l 227 672 "},"s":{"x_min":60,"x_max":528,"ha":593,"o":"m 512 501 l 394 430 q 298 481 342 481 q 260 468 276 481 q 245 439 245 456 q 263 398 245 410 q 359 358 281 385 q 482 289 437 331 q 528 172 528 247 q 460 42 528 96 q 297 -11 392 -11 q 168 25 232 -11 q 60 135 104 61 l 200 199 q 298 117 247 117 q 339 131 321 117 q 358 165 358 146 q 336 202 358 189 q 305 215 315 215 q 256 234 301 219 q 82 419 82 291 q 144 545 82 496 q 308 595 207 595 q 512 501 420 595 "},"B":{"x_min":88,"x_max":707,"ha":736,"o":"m 88 891 l 347 891 q 570 823 510 891 q 630 664 630 755 q 608 566 630 606 q 538 486 586 527 q 668 392 630 454 q 707 259 707 330 q 622 68 707 137 q 386 0 538 0 l 88 0 l 88 891 m 280 742 l 280 546 l 323 546 q 405 577 372 546 q 439 653 439 608 q 406 716 439 690 q 325 742 374 742 l 280 742 m 280 395 l 280 149 l 348 149 q 507 264 507 149 q 468 361 507 327 q 358 395 429 395 l 280 395 "},"…":{"x_min":126,"x_max":1262,"ha":1389,"o":"m 126 98 q 157 174 126 142 q 231 206 188 206 q 307 174 275 206 q 339 98 339 142 q 307 23 339 54 q 231 -8 276 -8 q 157 23 188 -8 q 126 98 126 55 m 589 98 q 620 174 589 143 q 695 205 651 205 q 769 174 738 205 q 801 98 801 143 q 769 23 801 54 q 695 -8 738 -8 q 620 23 651 -8 q 589 98 589 55 m 1050 98 q 1081 173 1050 142 q 1156 205 1112 205 q 1230 173 1199 205 q 1262 98 1262 142 q 1230 24 1262 55 q 1156 -7 1199 -7 q 1081 24 1112 -7 q 1050 98 1050 55 "},"?":{"x_min":32,"x_max":630,"ha":665,"o":"m 426 348 l 426 302 l 235 302 l 235 486 l 269 486 q 394 521 347 486 q 441 616 441 557 q 405 696 441 662 q 324 731 370 731 q 253 699 283 731 q 223 625 223 667 l 223 611 l 32 611 l 32 619 q 123 818 32 733 q 340 903 215 903 q 543 819 457 903 q 630 622 630 736 q 578 456 630 536 q 426 348 527 376 m 224 96 q 255 172 224 140 q 330 204 287 204 q 406 172 375 204 q 438 96 438 140 q 406 20 438 52 q 330 -11 375 -11 q 255 20 287 -11 q 224 96 224 52 "},"H":{"x_min":88,"x_max":788,"ha":882,"o":"m 88 891 l 280 891 l 280 547 l 596 547 l 596 891 l 788 891 l 788 0 l 596 0 l 596 354 l 280 354 l 280 0 l 88 0 l 88 891 "},"î":{"x_min":-49,"x_max":412,"ha":361,"o":"m 94 583 l 268 583 l 268 0 l 94 0 l 94 583 m -49 675 l 95 875 l 271 875 l 412 675 l 259 675 l 179 776 l 105 675 l -49 675 "},"c":{"x_min":49,"x_max":507,"ha":561,"o":"m 505 203 l 505 29 q 356 -12 415 -12 q 137 74 225 -12 q 49 291 49 161 q 130 508 49 422 q 337 595 212 595 q 507 554 425 595 l 507 390 q 368 427 431 427 q 274 391 310 427 q 239 297 239 355 q 274 203 239 239 q 366 168 309 168 q 505 203 419 168 "},"¶":{"x_min":1,"x_max":769,"ha":773,"o":"m 434 -274 l 268 -274 l 268 436 q 69 519 138 446 q 1 713 1 592 q 30 848 1 787 q 112 943 60 909 q 207 985 164 977 q 364 994 249 994 l 769 994 l 769 816 l 692 816 l 692 -274 l 531 -274 l 531 816 l 434 816 l 434 -274 "},"≠":{"x_min":86,"x_max":840,"ha":926,"o":"m 840 225 l 414 225 l 318 52 l 199 108 l 263 225 l 86 225 l 86 371 l 344 371 l 443 549 l 86 549 l 86 695 l 524 695 l 598 827 l 714 765 l 675 695 l 840 695 l 840 549 l 594 549 l 495 371 l 840 371 l 840 225 "},"•":{"x_min":41,"x_max":443,"ha":486,"o":"m 241 692 q 383 632 324 692 q 443 490 443 573 q 383 349 443 408 q 241 290 324 290 q 100 349 159 290 q 41 490 41 408 q 100 632 41 573 q 241 692 159 692 "},"¥":{"x_min":33,"x_max":790,"ha":810,"o":"m 409 612 l 576 889 l 790 889 l 711 758 l 761 758 l 761 670 l 659 670 l 559 502 l 761 502 l 761 414 l 507 414 l 507 0 l 315 0 l 315 414 l 57 414 l 57 502 l 262 502 l 163 670 l 57 670 l 57 758 l 110 758 l 33 889 l 245 889 l 409 612 "},"(":{"x_min":81,"x_max":376.40625,"ha":435,"o":"m 278 920 l 376 836 q 359 811 370 827 q 215 350 215 607 q 248 105 215 218 q 376 -139 282 -7 l 278 -224 q 128 50 175 -101 q 81 355 81 202 q 127 646 81 499 q 278 920 174 793 "},"U":{"x_min":90,"x_max":786,"ha":882,"o":"m 90 891 l 279 891 l 279 346 q 321 224 279 270 q 431 178 363 178 q 553 224 510 178 q 597 355 597 270 l 597 891 l 786 891 l 786 314 q 746 156 786 238 q 625 31 707 74 q 442 -12 543 -12 q 174 90 259 -12 q 90 304 90 192 l 90 891 "},"◊":{"x_min":31,"x_max":652,"ha":686,"o":"m 652 517 l 382 0 l 300 0 l 31 517 l 300 1035 l 382 1035 l 652 517 m 568 517 l 341 960 l 114 517 l 341 74 l 568 517 "},"Ñ":{"x_min":81,"x_max":867,"ha":956,"o":"m 679 891 l 867 891 l 867 0 l 681 0 l 273 577 l 273 0 l 81 0 l 81 891 l 271 891 l 679 318 l 679 891 m 326 959 l 240 959 l 240 977 q 272 1090 240 1049 q 363 1131 305 1131 q 410 1124 389 1131 q 483 1095 430 1118 q 565 1073 535 1073 q 621 1131 613 1073 l 708 1131 q 587 962 708 962 q 542 966 559 962 q 464 993 524 970 q 372 1017 403 1017 q 326 963 326 1017 l 326 959 "},"F":{"x_min":92,"x_max":592,"ha":665,"o":"m 92 891 l 592 891 l 592 719 l 283 719 l 283 537 l 592 537 l 592 363 l 284 363 l 284 0 l 92 0 l 92 891 "},"­":{"x_min":20,"x_max":411,"ha":435,"o":"m 20 379 l 411 379 l 411 204 l 20 204 l 20 379 "},":":{"x_min":69,"x_max":288,"ha":361,"o":"m 69 452 q 101 528 69 496 q 178 560 133 560 q 254 528 222 560 q 287 452 287 496 q 254 376 287 407 q 178 345 222 345 q 101 376 133 345 q 69 452 69 407 m 72 96 q 103 173 72 141 q 179 205 135 205 q 256 173 224 205 q 288 96 288 141 q 256 21 288 52 q 179 -10 224 -10 q 103 21 134 -10 q 72 96 72 52 "},"Û":{"x_min":90,"x_max":786,"ha":882,"o":"m 90 891 l 279 891 l 279 346 q 321 224 279 270 q 431 178 363 178 q 553 224 510 178 q 597 355 597 270 l 597 891 l 786 891 l 786 314 q 746 156 786 238 q 625 31 707 74 q 442 -12 543 -12 q 174 90 259 -12 q 90 304 90 192 l 90 891 m 210 953 l 354 1153 l 530 1153 l 671 953 l 518 953 l 438 1054 l 364 953 l 210 953 "},"*":{"x_min":49,"x_max":543,"ha":593,"o":"m 312 684 l 329 674 q 423 764 366 696 q 486 799 452 799 q 526 782 510 799 q 543 740 543 765 q 518 696 543 711 q 438 670 494 681 q 346 641 382 659 l 346 622 q 420 599 363 610 q 509 575 476 589 q 542 524 542 562 q 525 484 542 501 q 486 468 509 468 q 444 483 464 468 q 389 539 424 499 q 330 597 355 578 l 311 584 q 341 469 310 565 q 350 424 350 441 q 334 377 350 396 q 294 359 318 359 q 252 376 268 359 q 236 423 236 394 q 244 463 236 441 l 265 519 q 276 570 276 552 l 276 585 l 261 595 q 243 581 256 590 q 199 534 231 572 q 149 482 166 496 q 103 468 131 468 q 65 486 82 468 q 49 526 49 504 q 72 568 49 548 q 127 592 95 587 l 173 599 q 244 623 213 606 l 242 645 q 150 671 212 660 q 68 702 87 681 q 49 743 49 722 q 65 782 49 764 q 104 800 82 800 q 167 764 135 800 l 212 715 q 258 674 222 703 l 276 684 l 276 695 q 249 792 276 723 q 237 844 237 823 q 252 890 237 872 q 291 908 267 908 q 334 890 317 908 q 351 846 351 872 q 346 819 351 830 q 312 706 312 715 l 312 684 "},"†":{"x_min":45,"x_max":564,"ha":608,"o":"m 339 572 l 339 556 q 405 572 365 558 q 485 586 446 586 q 546 571 528 586 q 564 518 564 556 q 490 450 564 450 q 405 464 445 450 q 340 481 365 479 l 350 430 q 374 239 374 323 q 356 64 374 195 q 338 -279 338 -66 l 268 -279 q 258 -37 260 -70 q 243 89 256 -4 q 231 244 231 183 q 246 379 231 312 q 264 482 262 447 q 200 463 249 478 q 114 449 151 449 q 60 464 76 449 q 45 516 45 480 q 60 571 45 555 q 115 587 75 587 q 199 572 157 587 q 265 555 241 557 q 248 686 265 599 q 231 817 231 774 q 304 905 231 905 q 359 883 343 905 q 375 809 375 862 q 357 686 375 761 q 339 572 339 611 "},"∕":{"x_min":-288,"x_max":532,"ha":246,"o":"m 414 904 l 532 904 l -169 -24 l -288 -24 l 414 904 "},"°":{"x_min":61,"x_max":494,"ha":555,"o":"m 277 578 q 124 641 188 578 q 61 794 61 705 q 124 947 61 883 q 277 1011 188 1011 q 430 947 366 1011 q 494 794 494 883 q 430 641 494 705 q 277 578 366 578 m 277 898 q 204 867 235 898 q 174 793 174 836 q 204 722 174 752 q 277 692 235 692 q 350 722 320 692 q 381 793 381 752 q 350 867 381 837 q 277 898 320 898 "},"V":{"x_min":17,"x_max":856,"ha":882,"o":"m 17 891 l 211 891 l 436 298 l 661 891 l 856 891 l 520 0 l 353 0 l 17 891 "},"å":{"x_min":36,"x_max":643,"ha":733,"o":"m 469 0 l 469 100 l 466 100 q 384 15 425 41 q 281 -11 342 -11 q 107 77 179 -11 q 36 291 36 165 q 112 505 36 416 q 294 595 189 595 q 384 572 344 595 q 469 502 424 550 l 469 583 l 643 583 l 643 0 l 469 0 m 341 421 q 255 379 290 421 q 221 276 221 338 q 253 182 221 218 q 340 147 286 147 q 428 188 391 147 q 465 287 465 229 q 428 381 465 341 q 341 421 391 421 m 366 907 q 460 868 421 907 q 499 775 499 830 q 459 681 499 720 q 366 642 420 642 q 272 681 311 642 q 233 775 233 720 q 272 868 233 830 q 366 907 311 907 m 366 715 q 408 732 390 715 q 426 775 426 750 q 408 817 426 799 q 366 835 391 835 q 323 817 341 835 q 306 775 306 799 q 323 732 306 750 q 366 715 341 715 "}," ":{"x_min":0,"x_max":0,"ha":370},"0":{"x_min":28,"x_max":706,"ha":737,"o":"m 369 878 q 614 759 523 878 q 706 444 706 641 q 604 101 706 213 q 369 -10 502 -10 q 122 109 216 -10 q 28 422 28 228 q 120 753 28 628 q 363 878 212 878 l 369 878 m 524 427 q 482 634 524 559 q 369 710 440 710 q 252 634 295 710 q 210 424 210 559 q 253 229 210 302 q 366 156 296 156 q 481 229 438 156 q 524 427 524 302 "},"”":{"x_min":75,"x_max":605,"ha":665,"o":"m 406 891 l 605 891 l 605 704 q 510 492 605 606 l 430 547 q 502 692 497 621 l 406 692 l 406 891 m 75 891 l 272 891 l 272 711 q 176 492 272 605 l 96 546 q 146 617 124 572 q 168 681 168 662 l 168 692 l 75 692 l 75 891 "},"¾":{"x_min":69,"x_max":1190,"ha":1258,"o":"m 195 742 l 73 742 q 127 862 77 820 q 262 905 177 905 q 401 864 348 905 q 455 758 455 823 q 397 643 455 688 q 476 510 476 604 q 422 384 476 430 q 275 339 368 339 q 137 375 194 339 q 69 501 81 411 l 199 501 q 273 440 220 440 q 318 458 300 440 q 336 507 336 477 q 312 559 336 540 q 247 579 288 579 l 235 579 l 235 684 q 305 698 283 685 q 327 747 327 711 q 310 789 327 774 q 265 805 293 805 q 195 742 211 805 m 952 904 l 1070 904 l 368 -24 l 250 -24 l 952 904 m 1030 533 l 1141 533 l 1141 204 l 1190 204 l 1190 98 l 1141 98 l 1141 -21 l 1011 -21 l 1011 98 l 780 98 l 780 203 l 1030 533 m 1008 369 l 879 205 l 1012 205 l 1012 369 l 1008 369 "},"@":{"x_min":39,"x_max":1348,"ha":1354,"o":"m 1203 12 l 1348 12 q 1119 -214 1273 -136 q 751 -292 965 -292 l 747 -292 q 227 -127 415 -292 q 39 325 39 37 q 133 689 39 522 q 386 933 228 856 q 733 1011 544 1011 q 1151 865 991 1011 q 1311 488 1311 720 q 1178 144 1311 289 q 864 0 1045 0 q 739 77 756 0 q 555 0 659 0 q 367 79 439 0 q 295 290 295 159 q 396 592 295 450 q 662 734 498 734 q 841 642 781 734 l 858 718 l 1035 718 l 933 231 q 923 170 923 186 q 950 139 923 139 q 1045 186 985 139 q 1146 317 1104 233 q 1189 495 1189 400 q 1063 779 1189 671 q 731 888 937 888 q 420 811 550 888 q 227 597 290 735 q 164 317 164 459 q 317 -37 164 93 q 736 -169 470 -169 q 1203 12 1061 -169 m 470 291 l 470 281 q 503 166 470 209 q 590 123 536 123 q 745 232 687 123 q 803 453 803 341 q 768 569 803 526 q 676 612 734 612 q 530 520 591 612 q 470 291 470 429 "},"ö":{"x_min":66,"x_max":669,"ha":737,"o":"m 66 290 q 152 510 66 425 q 373 596 238 596 q 583 508 498 596 q 669 293 669 421 q 583 74 669 161 q 370 -12 498 -12 q 146 79 226 -12 q 66 290 66 171 m 498 290 q 459 393 498 349 q 369 437 420 437 q 276 395 315 437 q 238 296 238 354 q 276 189 238 233 q 369 146 314 146 q 459 188 420 146 q 498 290 498 231 m 214 686 q 149 712 175 686 q 123 777 123 738 q 149 841 123 814 q 214 869 176 869 q 279 841 252 869 q 306 777 306 814 q 279 712 306 738 q 214 686 252 686 m 520 686 q 455 712 482 686 q 429 777 429 738 q 455 841 429 814 q 520 869 482 869 q 585 841 558 869 q 612 777 612 814 q 585 712 612 738 q 520 686 559 686 "},"i":{"x_min":68,"x_max":285,"ha":361,"o":"m 68 798 q 99 875 68 843 q 176 907 131 907 q 253 875 221 907 q 285 798 285 843 q 253 721 285 753 q 176 690 221 690 q 99 721 131 690 q 68 798 68 753 m 90 583 l 264 583 l 264 0 l 90 0 l 90 583 "},"≤":{"x_min":86,"x_max":840,"ha":926,"o":"m 840 121 l 86 435 l 86 567 l 840 882 l 840 725 l 284 501 l 840 279 l 840 121 m 86 106 l 840 106 l 840 -40 l 86 -40 l 86 106 "},"Õ":{"x_min":61,"x_max":958,"ha":1028,"o":"m 61 445 q 191 771 61 642 q 501 900 322 900 q 828 770 699 900 q 958 444 958 641 q 829 118 958 248 q 507 -11 701 -11 q 186 117 312 -11 q 61 445 61 246 m 510 722 q 329 644 398 724 q 261 439 261 565 q 330 243 261 321 q 507 165 400 165 q 688 242 619 165 q 757 445 757 319 q 689 644 757 569 q 510 722 621 719 m 362 959 l 276 959 l 276 977 q 308 1090 276 1049 q 399 1131 341 1131 q 446 1124 425 1131 q 519 1095 466 1118 q 601 1073 571 1073 q 657 1131 649 1073 l 744 1131 q 623 962 744 962 q 578 966 595 962 q 500 993 560 970 q 408 1017 439 1017 q 362 963 362 1017 l 362 959 "},"þ":{"x_min":97,"x_max":703,"ha":737,"o":"m 271 907 l 271 498 l 273 498 q 449 596 342 596 q 629 506 555 596 q 703 286 703 416 q 630 75 703 161 q 454 -11 557 -11 q 273 99 350 -11 l 271 99 l 271 -256 l 97 -256 l 97 907 l 271 907 m 276 284 q 312 188 276 228 q 399 148 348 148 q 486 184 454 148 q 519 282 519 220 q 483 381 519 341 q 395 422 447 422 q 310 381 345 422 q 276 284 276 340 "},"]":{"x_min":29,"x_max":318,"ha":435,"o":"m 29 905 l 318 905 l 318 -211 l 29 -211 l 29 -97 l 195 -97 l 195 790 l 29 790 l 29 905 "},"m":{"x_min":90,"x_max":1012,"ha":1100,"o":"m 265 583 l 265 490 q 300 521 277 498 q 346 560 324 544 q 399 586 368 576 q 455 596 430 596 q 541 567 495 596 q 619 467 588 539 q 725 566 673 536 q 822 596 777 596 q 957 530 902 596 q 1012 369 1012 465 l 1012 0 l 838 0 l 838 323 q 811 404 838 371 q 747 437 785 437 q 670 399 703 437 q 638 310 638 362 l 638 0 l 466 0 l 466 315 q 439 401 466 366 q 374 436 412 436 q 297 397 329 436 q 265 305 265 359 l 265 0 l 90 0 l 90 583 l 265 583 "},"8":{"x_min":77,"x_max":660,"ha":737,"o":"m 533 455 q 660 239 660 373 q 580 58 660 128 q 371 -11 500 -11 q 158 57 239 -11 q 77 237 77 126 q 204 454 77 373 q 125 546 150 501 q 100 648 100 590 q 170 810 100 742 q 367 879 240 879 q 564 817 490 879 q 638 653 638 755 q 533 455 638 534 m 462 623 q 435 693 462 665 q 370 722 409 722 q 305 695 331 722 q 280 631 280 669 q 305 565 280 592 q 370 539 331 539 q 433 565 405 539 q 462 623 462 591 m 476 266 q 444 343 476 311 q 366 376 412 376 q 292 342 323 376 q 261 261 261 308 q 293 185 261 219 q 366 152 325 152 q 444 185 412 152 q 476 266 476 218 "},"R":{"x_min":88,"x_max":753,"ha":810,"o":"m 88 891 l 381 891 q 593 820 515 891 q 671 629 671 749 q 635 487 671 561 q 503 371 599 413 l 753 0 l 533 0 l 302 345 l 280 345 l 280 0 l 88 0 l 88 891 m 281 732 l 281 500 l 322 500 q 474 622 474 500 q 434 702 474 672 q 325 732 395 732 l 281 732 "},"á":{"x_min":36,"x_max":643,"ha":733,"o":"m 469 0 l 469 100 l 466 100 q 384 15 425 41 q 281 -11 342 -11 q 107 77 179 -11 q 36 291 36 165 q 112 505 36 416 q 294 595 189 595 q 384 572 344 595 q 469 502 424 550 l 469 583 l 643 583 l 643 0 l 469 0 m 341 421 q 255 379 290 421 q 221 276 221 338 q 253 182 221 218 q 340 147 286 147 q 428 188 391 147 q 465 287 465 229 q 428 381 465 341 q 341 421 391 421 m 261 672 l 356 875 l 568 875 l 382 672 l 261 672 "},"×":{"x_min":107,"x_max":820,"ha":926,"o":"m 107 711 l 209 814 l 463 560 l 717 814 l 820 711 l 567 456 l 819 205 l 716 102 l 464 354 l 212 102 l 110 205 l 361 457 l 107 711 "},"o":{"x_min":66,"x_max":669,"ha":737,"o":"m 66 290 q 152 510 66 425 q 373 596 238 596 q 583 508 498 596 q 669 293 669 421 q 583 74 669 161 q 370 -12 498 -12 q 146 79 226 -12 q 66 290 66 171 m 498 290 q 459 393 498 349 q 369 437 420 437 q 276 395 315 437 q 238 296 238 354 q 276 189 238 233 q 369 146 314 146 q 459 188 420 146 q 498 290 498 231 "},"5":{"x_min":78,"x_max":654,"ha":737,"o":"m 189 867 l 617 867 l 617 708 l 357 708 l 347 606 q 574 519 494 606 q 654 315 654 433 q 551 85 654 182 q 308 -12 448 -12 q 191 6 241 -12 q 78 68 141 25 l 98 266 q 320 171 239 171 q 421 212 378 171 q 465 310 465 254 q 421 413 465 372 q 312 455 378 455 q 146 417 235 455 l 189 867 "},"õ":{"x_min":66,"x_max":669,"ha":737,"o":"m 66 290 q 152 510 66 425 q 373 596 238 596 q 583 508 498 596 q 669 293 669 421 q 583 74 669 161 q 370 -12 498 -12 q 146 79 226 -12 q 66 290 66 171 m 498 290 q 459 393 498 349 q 369 437 420 437 q 276 395 315 437 q 238 296 238 354 q 276 189 238 233 q 369 146 314 146 q 459 188 420 146 q 498 290 498 231 m 216 682 l 130 682 l 130 700 q 162 813 130 772 q 253 854 195 854 q 300 847 279 854 q 373 818 320 841 q 455 796 425 796 q 511 854 503 796 l 598 854 q 477 685 598 685 q 432 689 449 685 q 354 716 414 693 q 262 740 293 740 q 216 686 216 740 l 216 682 "},"7":{"x_min":16,"x_max":721,"ha":737,"o":"m 36 865 l 721 865 l 169 -26 l 16 69 l 409 708 l 36 708 l 36 865 "},"K":{"x_min":94,"x_max":833,"ha":882,"o":"m 94 891 l 286 891 l 286 514 l 288 514 l 585 891 l 819 891 l 480 465 l 833 0 l 601 0 l 288 416 l 286 416 l 286 0 l 94 0 l 94 891 "},",":{"x_min":60,"x_max":300,"ha":361,"o":"m 126 203 l 300 203 l 160 -171 l 60 -171 l 126 203 "},"d":{"x_min":41,"x_max":644,"ha":737,"o":"m 469 905 l 644 905 l 644 0 l 473 0 l 473 100 l 470 100 q 282 -10 394 -10 q 111 77 182 -10 q 41 291 41 165 q 114 506 41 417 q 289 596 187 596 q 387 574 347 596 q 469 505 427 553 l 469 905 m 341 424 q 262 384 299 424 q 225 277 225 345 q 257 186 225 224 q 336 148 290 148 q 428 189 391 148 q 466 291 466 230 q 429 384 466 344 q 341 424 393 424 "},"¨":{"x_min":-14,"x_max":475,"ha":463,"o":"m 77 686 q 12 712 38 686 q -14 777 -14 738 q 12 841 -14 814 q 77 869 39 869 q 142 841 115 869 q 169 777 169 814 q 142 712 169 738 q 77 686 115 686 m 383 686 q 318 712 345 686 q 292 777 292 738 q 318 841 292 814 q 383 869 345 869 q 448 841 421 869 q 475 777 475 814 q 448 712 475 738 q 383 686 422 686 "},"Ô":{"x_min":61,"x_max":958,"ha":1028,"o":"m 61 445 q 191 771 61 642 q 501 900 322 900 q 828 770 699 900 q 958 444 958 641 q 829 118 958 248 q 507 -11 701 -11 q 186 117 312 -11 q 61 445 61 246 m 510 722 q 329 644 398 724 q 261 439 261 565 q 330 243 261 321 q 507 165 400 165 q 688 242 619 165 q 757 445 757 319 q 689 644 757 569 q 510 722 621 719 m 284 953 l 428 1153 l 604 1153 l 745 953 l 592 953 l 512 1054 l 438 953 l 284 953 "},"E":{"x_min":92,"x_max":592,"ha":665,"o":"m 92 891 l 592 891 l 592 715 l 284 715 l 284 535 l 592 535 l 592 361 l 284 361 l 284 176 l 592 176 l 592 0 l 92 0 l 92 891 "},"Y":{"x_min":22,"x_max":780,"ha":810,"o":"m 22 891 l 234 891 l 399 614 l 566 891 l 780 891 l 496 417 l 496 0 l 306 0 l 306 417 l 22 891 "},"\"":{"x_min":72,"x_max":586,"ha":659,"o":"m 109 640 l 72 826 l 72 994 l 281 994 l 281 826 l 249 640 l 109 640 m 415 640 l 379 826 l 379 994 l 586 994 l 586 826 l 555 640 l 415 640 "},"‹":{"x_min":35,"x_max":332.5625,"ha":376,"o":"m 173 718 l 332 718 l 193 386 l 330 54 l 170 54 l 35 388 l 173 718 "},"˙":{"x_min":142,"x_max":325,"ha":463,"o":"m 233 693 q 168 720 195 693 q 142 785 142 747 q 168 850 142 823 q 233 877 195 877 q 298 850 271 877 q 325 785 325 823 q 298 720 325 747 q 233 693 271 693 "},"ê":{"x_min":33,"x_max":625,"ha":665,"o":"m 625 250 l 209 250 q 245 159 212 194 q 324 124 279 124 q 449 196 404 124 l 609 143 q 333 -12 520 -12 q 114 71 195 -12 q 33 295 33 154 q 118 508 33 422 q 330 595 204 595 q 540 504 456 595 q 625 277 625 413 l 625 250 m 210 367 l 445 367 q 332 476 420 476 q 249 447 282 476 q 210 367 216 419 m 102 675 l 246 875 l 422 875 l 563 675 l 410 675 l 330 776 l 256 675 l 102 675 "},"Ï":{"x_min":-65,"x_max":424,"ha":361,"o":"m 81 891 l 273 891 l 273 0 l 81 0 l 81 891 m 26 963 q -38 989 -12 963 q -65 1054 -65 1015 q -38 1118 -65 1091 q 26 1146 -11 1146 q 91 1118 64 1146 q 118 1054 118 1091 q 91 989 118 1015 q 26 963 64 963 m 332 963 q 267 989 294 963 q 241 1054 241 1015 q 267 1118 241 1091 q 332 1146 294 1146 q 397 1118 370 1146 q 424 1054 424 1091 q 397 989 424 1015 q 332 963 371 963 "},"„":{"x_min":75,"x_max":606,"ha":665,"o":"m 407 199 l 606 199 l 606 15 q 511 -197 606 -91 l 431 -144 q 503 0 496 -78 l 407 0 l 407 199 m 75 199 l 275 199 l 275 26 q 175 -200 275 -92 l 98 -144 q 172 0 168 -74 l 75 0 l 75 199 "},"Â":{"x_min":43,"x_max":911,"ha":956,"o":"m 397 891 l 547 891 l 911 0 l 717 0 l 646 176 l 305 176 l 235 0 l 43 0 l 397 891 m 473 599 l 369 337 l 580 337 l 473 599 m 248 953 l 392 1153 l 568 1153 l 709 953 l 556 953 l 476 1054 l 402 953 l 248 953 "},"Í":{"x_min":75,"x_max":382,"ha":361,"o":"m 81 891 l 273 891 l 273 0 l 81 0 l 81 891 m 75 950 l 170 1153 l 382 1153 l 196 950 l 75 950 "},"´":{"x_min":126,"x_max":433,"ha":463,"o":"m 126 672 l 221 875 l 433 875 l 247 672 l 126 672 "},"ì":{"x_min":-20,"x_max":286,"ha":361,"o":"m 94 583 l 268 583 l 268 0 l 94 0 l 94 583 m 286 672 l 165 672 l -20 875 l 192 875 l 286 672 "},"±":{"x_min":85,"x_max":841,"ha":926,"o":"m 85 653 l 390 653 l 390 958 l 536 958 l 536 653 l 841 653 l 841 509 l 536 509 l 536 203 l 390 203 l 390 509 l 85 509 l 85 653 m 85 106 l 841 106 l 841 -40 l 85 -40 l 85 106 "},"Ú":{"x_min":90,"x_max":786,"ha":882,"o":"m 90 891 l 279 891 l 279 346 q 321 224 279 270 q 431 178 363 178 q 553 224 510 178 q 597 355 597 270 l 597 891 l 786 891 l 786 314 q 746 156 786 238 q 625 31 707 74 q 442 -12 543 -12 q 174 90 259 -12 q 90 304 90 192 l 90 891 m 335 950 l 430 1153 l 642 1153 l 456 950 l 335 950 "},"|":{"x_min":335,"x_max":482,"ha":817,"o":"m 335 966 l 482 966 l 482 -187 l 335 -187 l 335 966 "},"§":{"x_min":82,"x_max":586,"ha":664,"o":"m 560 710 l 399 710 q 331 751 371 751 q 293 738 308 751 q 279 707 279 726 q 302 657 279 680 q 426 566 326 635 q 556 441 526 497 q 586 323 586 386 q 558 208 586 257 q 472 114 531 160 q 543 23 526 55 q 561 -51 561 -8 q 498 -198 561 -140 q 340 -256 436 -256 q 180 -202 246 -256 q 107 -60 115 -149 l 269 -60 q 337 -102 298 -102 q 374 -88 359 -102 q 390 -54 390 -74 q 278 56 389 -15 q 188 122 247 73 q 105 224 128 171 q 82 327 82 276 q 109 440 82 394 q 197 536 136 486 q 129 617 151 582 q 107 702 107 652 q 169 847 107 789 q 329 905 232 905 q 489 851 424 905 q 560 710 554 798 m 291 458 q 255 427 282 458 q 228 360 228 397 q 380 191 227 291 q 440 289 440 246 q 402 367 440 328 q 291 458 364 406 "},"Ý":{"x_min":22,"x_max":780,"ha":810,"o":"m 22 891 l 234 891 l 399 614 l 566 891 l 780 891 l 496 417 l 496 0 l 306 0 l 306 417 l 22 891 m 299 950 l 394 1153 l 606 1153 l 420 950 l 299 950 "},"b":{"x_min":81,"x_max":688,"ha":737,"o":"m 81 907 l 254 907 l 254 504 q 430 595 331 595 q 611 504 535 595 q 688 287 688 414 q 612 78 688 167 q 437 -11 537 -11 q 344 14 387 -11 q 253 94 302 39 l 253 0 l 81 0 l 81 907 m 379 421 q 292 384 327 421 q 258 284 258 347 q 294 186 258 225 q 385 147 330 147 q 469 185 436 147 q 503 281 503 223 q 466 379 503 338 q 379 421 430 421 "},"q":{"x_min":32,"x_max":640,"ha":733,"o":"m 466 -257 l 466 105 l 463 105 q 381 16 421 43 q 280 -11 340 -11 q 104 74 176 -11 q 32 284 32 160 q 106 504 32 415 q 288 593 181 593 q 387 569 347 593 q 463 493 428 545 l 466 493 l 466 583 l 640 583 l 640 -257 l 466 -257 m 461 282 q 424 378 461 335 q 342 421 388 421 q 251 380 287 421 q 216 278 216 339 q 249 183 216 221 q 331 146 282 146 q 422 186 383 146 q 461 282 461 227 "},"Ö":{"x_min":61,"x_max":958,"ha":1028,"o":"m 61 445 q 191 771 61 642 q 501 900 322 900 q 828 770 699 900 q 958 444 958 641 q 829 118 958 248 q 507 -11 701 -11 q 186 117 312 -11 q 61 445 61 246 m 510 722 q 329 644 398 724 q 261 439 261 565 q 330 243 261 321 q 507 165 400 165 q 688 242 619 165 q 757 445 757 319 q 689 644 757 569 q 510 722 621 719 m 359 963 q 294 989 320 963 q 268 1054 268 1015 q 294 1118 268 1091 q 359 1146 321 1146 q 424 1118 397 1146 q 451 1054 451 1091 q 424 989 451 1015 q 359 963 397 963 m 665 963 q 600 989 627 963 q 574 1054 574 1015 q 600 1118 574 1091 q 665 1146 627 1146 q 730 1118 703 1146 q 757 1054 757 1091 q 730 989 757 1015 q 665 963 704 963 "},"z":{"x_min":32,"x_max":631,"ha":665,"o":"m 81 583 l 631 583 l 322 160 l 582 160 l 582 0 l 32 0 l 341 425 l 81 425 l 81 583 "},"™":{"x_min":147,"x_max":1220,"ha":1389,"o":"m 318 439 l 318 897 l 147 897 l 147 994 l 598 994 l 598 897 l 431 897 l 431 439 l 318 439 m 664 439 l 664 994 l 840 994 l 940 611 l 943 611 l 1042 994 l 1220 994 l 1220 439 l 1112 439 l 1112 881 l 1110 881 l 991 439 l 890 439 l 774 881 l 771 881 l 771 439 l 664 439 "},"ã":{"x_min":36,"x_max":643,"ha":733,"o":"m 469 0 l 469 100 l 466 100 q 384 15 425 41 q 281 -11 342 -11 q 107 77 179 -11 q 36 291 36 165 q 112 505 36 416 q 294 595 189 595 q 384 572 344 595 q 469 502 424 550 l 469 583 l 643 583 l 643 0 l 469 0 m 341 421 q 255 379 290 421 q 221 276 221 338 q 253 182 221 218 q 340 147 286 147 q 428 188 391 147 q 465 287 465 229 q 428 381 465 341 q 341 421 391 421 m 213 682 l 127 682 l 127 700 q 159 813 127 772 q 250 854 192 854 q 297 847 276 854 q 370 818 317 841 q 452 796 422 796 q 508 854 500 796 l 595 854 q 474 685 595 685 q 429 689 446 685 q 351 716 411 693 q 259 740 290 740 q 213 686 213 740 l 213 682 "},"æ":{"x_min":36,"x_max":1050,"ha":1095,"o":"m 464 0 l 464 82 q 372 10 415 32 q 279 -12 330 -12 q 108 76 181 -12 q 36 287 36 165 q 110 506 36 417 q 294 595 185 595 q 386 572 348 595 q 462 500 424 549 l 465 500 l 465 583 l 638 583 l 638 542 q 785 595 713 595 q 962 514 886 595 q 1045 314 1038 433 l 1050 251 l 634 251 q 755 122 656 122 q 819 139 793 122 q 876 198 845 157 l 1032 142 q 932 30 999 73 q 783 -12 866 -12 q 638 46 694 -12 l 638 0 l 464 0 m 635 366 l 870 366 q 832 445 865 414 q 755 476 800 476 q 635 366 658 476 m 340 421 q 254 379 289 421 q 220 280 220 338 q 253 183 220 220 q 339 147 286 147 q 428 188 392 147 q 464 291 464 229 q 427 382 464 344 q 340 421 390 421 "},"®":{"x_min":-8,"x_max":1031,"ha":1025,"o":"m -8 494 q 144 861 -8 708 q 511 1014 297 1014 q 878 861 725 1014 q 1031 494 1031 708 q 878 127 1031 280 q 511 -25 725 -25 q 144 127 297 -25 q -8 494 -8 280 m 929 494 q 807 790 929 667 q 512 913 685 913 q 218 790 340 913 q 96 494 96 667 q 218 199 96 322 q 512 77 340 77 q 806 199 684 77 q 929 494 929 322 m 277 217 l 278 769 l 539 769 q 676 728 628 769 q 724 612 724 687 q 684 510 724 552 q 575 460 645 468 l 575 457 q 629 423 609 445 q 691 327 648 402 l 757 217 l 618 217 l 572 307 q 500 413 531 384 q 418 443 469 443 l 389 443 l 389 217 l 277 217 m 389 531 l 479 531 q 577 548 549 531 q 606 610 606 565 q 490 681 606 681 l 389 681 l 389 531 "},"É":{"x_min":92,"x_max":592,"ha":665,"o":"m 92 891 l 592 891 l 592 715 l 284 715 l 284 535 l 592 535 l 592 361 l 284 361 l 284 176 l 592 176 l 592 0 l 92 0 l 92 891 m 227 950 l 322 1153 l 534 1153 l 348 950 l 227 950 "},"~":{"x_min":79,"x_max":832,"ha":911,"o":"m 832 607 l 832 456 q 626 361 718 361 q 539 374 580 361 q 414 429 499 388 q 284 471 329 471 q 79 371 187 471 l 79 522 q 294 615 186 615 q 374 602 334 615 q 476 558 414 589 q 570 517 538 528 q 633 507 602 507 q 832 607 720 507 "},"³":{"x_min":47,"x_max":454,"ha":507,"o":"m 173 742 l 51 742 q 105 862 55 820 q 240 905 155 905 q 379 864 326 905 q 433 758 433 823 q 375 643 433 688 q 454 510 454 604 q 400 384 454 430 q 253 339 346 339 q 115 375 172 339 q 47 501 59 411 l 177 501 q 251 440 198 440 q 296 458 278 440 q 314 507 314 477 q 290 559 314 540 q 225 579 266 579 l 213 579 l 213 684 q 283 698 261 685 q 305 747 305 711 q 288 789 305 774 q 243 805 271 805 q 173 742 189 805 "},"¡":{"x_min":34,"x_max":250,"ha":289,"o":"m 34 637 q 65 714 34 682 q 141 746 96 746 q 218 714 186 746 q 250 637 250 682 q 218 561 250 593 q 141 530 186 530 q 65 561 96 530 q 34 637 34 592 m 46 430 l 238 430 l 238 -155 l 46 -155 l 46 430 "},"[":{"x_min":109,"x_max":401,"ha":435,"o":"m 109 905 l 401 905 l 401 790 l 234 790 l 234 -97 l 398 -97 l 398 -211 l 109 -211 l 109 905 "},"L":{"x_min":94,"x_max":547,"ha":593,"o":"m 94 891 l 285 891 l 285 192 l 547 192 l 547 0 l 94 0 l 94 891 "}," ":{"x_min":0,"x_max":0,"ha":370},"∑":{"x_min":83,"x_max":940,"ha":990,"o":"m 95 1011 l 933 1011 l 933 900 l 264 900 l 674 373 l 235 -184 l 940 -184 l 940 -293 l 83 -293 l 83 -166 l 503 368 l 95 892 l 95 1011 "},"%":{"x_min":110,"x_max":1239,"ha":1331,"o":"m 894 972 l 1004 972 l 453 -104 l 345 -104 l 894 972 m 110 669 q 174 888 110 806 q 344 971 238 971 q 512 887 447 971 q 577 670 577 804 q 512 451 577 534 q 346 368 448 368 q 175 451 241 368 q 110 669 110 535 m 447 659 q 416 832 447 790 q 344 875 386 875 q 262 825 286 875 q 239 662 239 776 q 344 465 239 465 q 447 659 447 465 m 775 186 q 839 415 775 327 q 1005 503 903 503 q 1173 417 1107 503 q 1239 196 1239 331 q 1171 -18 1239 66 q 1001 -103 1103 -103 q 839 -20 903 -103 q 775 186 775 61 m 1108 194 q 1085 353 1108 303 q 1009 403 1062 403 q 903 197 903 403 q 928 44 903 93 q 1007 -4 953 -4 q 1108 194 1108 -4 "},"P":{"x_min":94,"x_max":672,"ha":737,"o":"m 94 891 l 398 891 q 596 819 521 891 q 672 631 672 747 q 635 485 672 554 q 523 382 598 416 q 396 347 449 349 l 285 345 l 285 0 l 94 0 l 94 891 m 282 731 l 282 503 l 356 503 q 438 537 404 503 q 473 619 473 572 q 434 703 473 674 q 324 733 395 733 l 282 731 "},"∏":{"x_min":109,"x_max":1033,"ha":1143,"o":"m 109 1011 l 1033 1011 l 1033 -293 l 903 -293 l 903 893 l 240 893 l 240 -293 l 109 -293 l 109 1011 "},"À":{"x_min":43,"x_max":911,"ha":956,"o":"m 397 891 l 547 891 l 911 0 l 717 0 l 646 176 l 305 176 l 235 0 l 43 0 l 397 891 m 473 599 l 369 337 l 580 337 l 473 599 m 584 950 l 463 950 l 278 1153 l 490 1153 l 584 950 "},"_":{"x_min":-10,"x_max":705,"ha":695,"o":"m -10 -172 l -10 -103 l 705 -103 l 705 -172 l -10 -172 "},"ñ":{"x_min":96,"x_max":648,"ha":737,"o":"m 270 583 l 270 513 q 455 598 358 598 q 593 529 539 598 q 648 354 648 460 l 648 0 l 472 0 l 472 326 q 444 411 472 376 q 378 446 417 446 q 300 402 330 446 q 270 289 270 358 l 270 0 l 96 0 l 96 583 l 270 583 m 216 682 l 130 682 l 130 700 q 162 813 130 772 q 253 854 195 854 q 300 847 279 854 q 373 818 320 841 q 455 796 425 796 q 511 854 503 796 l 598 854 q 477 685 598 685 q 432 689 449 685 q 354 716 414 693 q 262 740 293 740 q 216 686 216 740 l 216 682 "},"+":{"x_min":85,"x_max":841,"ha":926,"o":"m 85 532 l 390 532 l 390 837 l 534 837 l 534 532 l 841 532 l 841 386 l 534 386 l 534 82 l 390 82 l 390 386 l 85 386 l 85 532 "},"‚":{"x_min":60,"x_max":300,"ha":361,"o":"m 126 203 l 300 203 l 160 -171 l 60 -171 l 126 203 "},"½":{"x_min":86,"x_max":1172,"ha":1258,"o":"m 107 897 l 296 897 l 296 352 l 164 352 l 164 783 l 86 783 l 107 897 m 879 904 l 997 904 l 295 -24 l 177 -24 l 879 904 m 1026 104 l 1172 104 l 1172 -11 l 766 -11 l 935 202 q 1009 304 987 268 q 1032 366 1032 340 q 970 427 1032 427 q 895 343 898 427 l 756 343 q 817 492 760 441 q 976 544 874 544 q 1118 500 1065 544 q 1171 382 1171 456 q 1026 104 1171 261 "},"Æ":{"x_min":37,"x_max":1040,"ha":1100,"o":"m 471 891 l 1040 891 l 1040 716 l 779 716 l 779 535 l 1039 535 l 1039 361 l 779 361 l 779 175 l 1039 175 l 1039 0 l 590 0 l 590 256 l 365 256 l 239 0 l 37 0 l 471 891 m 587 719 l 448 423 l 589 423 l 589 719 l 587 719 "},"Ë":{"x_min":88,"x_max":592,"ha":665,"o":"m 92 891 l 592 891 l 592 715 l 284 715 l 284 535 l 592 535 l 592 361 l 284 361 l 284 176 l 592 176 l 592 0 l 92 0 l 92 891 m 179 963 q 114 989 140 963 q 88 1054 88 1015 q 114 1118 88 1091 q 179 1146 141 1146 q 244 1118 217 1146 q 271 1054 271 1091 q 244 989 271 1015 q 179 963 217 963 m 485 963 q 420 989 447 963 q 394 1054 394 1015 q 420 1118 394 1091 q 485 1146 447 1146 q 550 1118 523 1146 q 577 1054 577 1091 q 550 989 577 1015 q 485 963 524 963 "},"'":{"x_min":61,"x_max":270,"ha":330,"o":"m 97 640 l 61 826 l 61 994 l 270 994 l 270 826 l 238 640 l 97 640 "},"ª":{"x_min":36,"x_max":429,"ha":478,"o":"m 316 513 l 316 576 l 313 576 q 194 503 268 503 q 83 559 130 503 q 36 692 36 615 q 84 839 36 780 q 203 899 132 899 q 313 835 267 899 l 316 835 l 316 890 l 429 890 l 429 513 l 316 513 m 315 697 q 291 759 315 734 q 234 785 267 785 q 178 758 202 785 q 155 696 155 732 q 176 630 155 654 q 232 606 197 606 q 290 633 266 606 q 315 697 315 660 "},"˛":{"x_min":109,"x_max":410,"ha":463,"o":"m 133 18 l 235 18 q 222 -79 222 -24 q 317 -187 222 -187 q 410 -171 358 -187 l 410 -264 q 278 -292 339 -292 q 154 -249 200 -292 q 109 -133 109 -206 q 131 9 109 -57 l 133 18 "},"ð":{"x_min":113,"x_max":712,"ha":766,"o":"m 207 818 l 294 914 q 412 854 361 884 l 526 911 l 566 831 l 495 795 q 712 320 712 626 q 629 79 712 169 q 408 -11 546 -11 q 198 75 283 -11 q 113 287 113 161 q 194 508 113 420 q 399 596 276 596 q 489 576 443 596 q 366 729 455 656 l 187 639 l 147 718 l 279 785 q 207 818 235 807 m 538 294 q 499 394 538 350 q 412 439 461 439 q 322 396 361 439 q 283 298 283 354 q 322 191 283 235 q 414 147 361 147 q 500 191 463 147 q 538 294 538 235 "},"T":{"x_min":29,"x_max":628,"ha":665,"o":"m 29 891 l 628 891 l 628 702 l 424 702 l 424 0 l 232 0 l 232 702 l 29 702 l 29 891 "},"Þ":{"x_min":102,"x_max":683,"ha":737,"o":"m 294 891 l 294 719 l 406 719 q 607 647 532 719 q 683 459 683 576 q 595 248 683 325 q 356 172 508 172 l 294 172 l 294 0 l 102 0 l 102 891 l 294 891 m 294 560 l 294 327 l 335 327 q 486 446 486 327 q 448 530 486 501 q 340 560 410 560 l 294 560 "},"j":{"x_min":72,"x_max":288,"ha":361,"o":"m 72 801 q 103 876 72 845 q 180 908 135 908 q 256 876 225 908 q 288 801 288 845 q 256 724 288 756 q 180 693 225 693 q 104 724 136 693 q 72 801 72 756 m 92 583 l 267 583 l 267 -257 l 92 -257 l 92 583 "},"1":{"x_min":147,"x_max":462,"ha":737,"o":"m 180 865 l 462 865 l 462 0 l 272 0 l 272 708 l 147 708 l 180 865 "},"›":{"x_min":28,"x_max":321.796875,"ha":376,"o":"m 29 720 l 186 720 l 321 385 l 185 56 l 28 56 l 163 387 l 29 720 "},"ä":{"x_min":36,"x_max":643,"ha":733,"o":"m 469 0 l 469 100 l 466 100 q 384 15 425 41 q 281 -11 342 -11 q 107 77 179 -11 q 36 291 36 165 q 112 505 36 416 q 294 595 189 595 q 384 572 344 595 q 469 502 424 550 l 469 583 l 643 583 l 643 0 l 469 0 m 341 421 q 255 379 290 421 q 221 276 221 338 q 253 182 221 218 q 340 147 286 147 q 428 188 391 147 q 465 287 465 229 q 428 381 465 341 q 341 421 391 421 m 212 686 q 147 712 173 686 q 121 777 121 738 q 147 841 121 814 q 212 869 174 869 q 277 841 250 869 q 304 777 304 814 q 277 712 304 738 q 212 686 250 686 m 518 686 q 453 712 480 686 q 427 777 427 738 q 453 841 427 814 q 518 869 480 869 q 583 841 556 869 q 610 777 610 814 q 583 712 610 738 q 518 686 557 686 "},"<":{"x_min":86,"x_max":840,"ha":926,"o":"m 840 78 l 86 393 l 86 523 l 840 839 l 840 681 l 284 458 l 840 234 l 840 78 "},"£":{"x_min":29,"x_max":712,"ha":736,"o":"m 648 660 l 483 660 l 483 674 q 465 732 483 710 q 421 754 448 754 q 361 680 361 754 q 386 539 361 625 l 550 539 l 550 412 l 408 412 q 410 373 410 391 l 410 355 l 408 349 l 408 344 q 375 192 408 266 q 517 142 471 142 q 571 166 555 142 q 589 243 587 190 l 712 243 l 712 185 q 662 42 712 95 q 528 -11 612 -11 q 313 71 450 -11 q 239 8 272 28 q 158 -11 205 -11 q 65 25 101 -11 q 29 119 29 61 q 67 212 29 177 q 171 247 106 247 q 267 225 211 247 l 268 291 q 240 413 268 346 l 58 413 l 58 540 l 210 540 q 196 655 196 605 q 268 826 196 777 q 425 875 340 875 q 589 819 529 875 q 648 660 648 763 m 235 122 q 161 162 200 162 q 123 148 138 162 q 108 116 108 135 q 121 83 108 97 q 152 70 134 70 q 235 122 190 70 "},"¹":{"x_min":115,"x_max":325,"ha":507,"o":"m 136 897 l 325 897 l 325 352 l 193 352 l 193 783 l 115 783 l 136 897 "},"t":{"x_min":16,"x_max":339,"ha":361,"o":"m 82 783 l 256 783 l 256 583 l 339 583 l 339 424 l 256 424 l 256 0 l 82 0 l 82 424 l 16 424 l 16 583 l 82 583 l 82 783 "},"¬":{"x_min":85,"x_max":841,"ha":926,"o":"m 85 701 l 841 701 l 841 225 l 695 225 l 695 555 l 85 555 l 85 701 "},"ù":{"x_min":81,"x_max":654,"ha":737,"o":"m 81 583 l 257 583 l 257 302 q 287 201 257 242 q 364 161 318 161 q 445 200 412 161 q 478 298 478 239 l 478 583 l 654 583 l 654 243 q 571 62 654 135 q 366 -11 489 -11 q 158 62 236 -11 q 81 257 81 135 l 81 583 m 474 672 l 353 672 l 168 875 l 380 875 l 474 672 "},"W":{"x_min":22,"x_max":1072,"ha":1100,"o":"m 22 891 l 192 891 l 335 284 l 485 891 l 607 891 l 755 281 l 901 891 l 1072 891 l 857 0 l 677 0 l 545 546 l 414 0 l 233 0 l 22 891 "},"ï":{"x_min":-63,"x_max":426,"ha":361,"o":"m 94 583 l 268 583 l 268 0 l 94 0 l 94 583 m 28 686 q -36 712 -10 686 q -63 777 -63 738 q -36 841 -63 814 q 28 869 -9 869 q 93 841 66 869 q 120 777 120 814 q 93 712 120 738 q 28 686 66 686 m 334 686 q 269 712 296 686 q 243 777 243 738 q 269 841 243 814 q 334 869 296 869 q 399 841 372 869 q 426 777 426 814 q 399 712 426 738 q 334 686 373 686 "},">":{"x_min":86,"x_max":840,"ha":926,"o":"m 86 839 l 840 525 l 840 392 l 86 78 l 86 236 l 641 458 l 86 682 l 86 839 "},"v":{"x_min":24,"x_max":709,"ha":737,"o":"m 24 583 l 207 583 l 367 241 l 526 583 l 709 583 l 438 0 l 295 0 l 24 583 "},"û":{"x_min":81,"x_max":654,"ha":737,"o":"m 81 583 l 257 583 l 257 302 q 287 201 257 242 q 364 161 318 161 q 445 200 412 161 q 478 298 478 239 l 478 583 l 654 583 l 654 243 q 571 62 654 135 q 366 -11 489 -11 q 158 62 236 -11 q 81 257 81 135 l 81 583 m 138 675 l 282 875 l 458 875 l 599 675 l 446 675 l 366 776 l 292 675 l 138 675 "},"Ò":{"x_min":61,"x_max":958,"ha":1028,"o":"m 61 445 q 191 771 61 642 q 501 900 322 900 q 828 770 699 900 q 958 444 958 641 q 829 118 958 248 q 507 -11 701 -11 q 186 117 312 -11 q 61 445 61 246 m 510 722 q 329 644 398 724 q 261 439 261 565 q 330 243 261 321 q 507 165 400 165 q 688 242 619 165 q 757 445 757 319 q 689 644 757 569 q 510 722 621 719 m 620 950 l 499 950 l 314 1153 l 526 1153 l 620 950 "},"&":{"x_min":64,"x_max":846,"ha":879,"o":"m 471 437 l 591 296 l 687 390 l 778 283 q 733 236 775 279 q 683 191 692 192 l 846 0 l 628 0 l 555 85 q 405 5 451 24 q 309 -14 358 -14 q 193 9 252 -14 q 98 88 133 32 q 64 208 64 143 q 253 451 64 354 q 170 653 170 553 q 236 797 170 736 q 394 859 302 859 q 558 799 492 859 q 624 653 624 740 q 568 525 624 581 q 471 437 513 469 m 387 539 q 472 662 472 605 q 452 714 472 694 q 400 734 432 734 q 350 712 370 734 q 331 657 331 691 q 387 539 331 617 m 398 269 q 372 300 393 273 q 338 339 351 326 q 264 215 264 274 q 286 164 264 186 q 339 143 308 143 q 460 196 383 143 l 398 269 "},"˝":{"x_min":65,"x_max":609,"ha":463,"o":"m 65 676 l 160 877 l 358 877 l 184 676 l 65 676 m 321 676 l 415 877 l 609 877 l 442 676 l 321 676 "},"Ð":{"x_min":29,"x_max":834,"ha":882,"o":"m 97 891 l 387 891 q 627 836 525 891 q 781 671 728 781 q 834 451 834 562 q 711 120 834 240 q 372 0 588 0 l 97 0 l 97 387 l 29 387 l 29 492 l 97 492 l 97 891 m 289 721 l 289 492 l 443 492 l 443 387 l 289 387 l 289 171 l 341 171 q 564 238 494 171 q 635 454 635 306 q 560 656 635 592 q 327 721 486 721 l 289 721 "},"I":{"x_min":81,"x_max":273,"ha":361,"o":"m 81 891 l 273 891 l 273 0 l 81 0 l 81 891 "},"ˉ":{"x_min":12,"x_max":451,"ha":463,"o":"m 12 703 l 12 830 l 451 830 l 451 703 l 12 703 "},"G":{"x_min":41,"x_max":903,"ha":956,"o":"m 847 697 l 719 578 q 620 681 679 647 q 496 716 561 716 q 315 636 392 716 q 238 449 238 557 q 315 254 238 334 q 501 175 392 175 q 614 204 560 175 q 703 317 669 234 l 492 317 l 492 491 l 903 491 l 903 375 q 841 184 903 286 q 681 35 780 82 q 479 -12 581 -12 q 167 121 294 -12 q 41 451 41 255 q 171 770 41 638 q 486 903 302 903 q 847 697 720 903 "},"`":{"x_min":29,"x_max":335,"ha":463,"o":"m 335 672 l 214 672 l 29 875 l 241 875 l 335 672 "},"·":{"x_min":71,"x_max":287,"ha":361,"o":"m 225 1066 l 225 1068 l 226 1066 l 225 1066 m 71 433 q 102 509 71 477 q 178 541 134 541 q 255 509 223 541 q 287 433 287 477 q 255 356 287 388 q 178 325 223 325 q 102 356 134 325 q 71 433 71 388 "},"r":{"x_min":74,"x_max":405,"ha":435,"o":"m 247 583 l 247 497 l 249 497 q 309 565 275 540 q 373 591 343 591 q 405 588 390 591 l 405 397 q 362 402 383 402 q 279 364 308 402 q 250 259 250 326 l 250 0 l 74 0 l 74 583 l 247 583 "},"¿":{"x_min":29,"x_max":627,"ha":663,"o":"m 220 639 q 251 714 220 682 q 326 746 283 746 q 402 714 371 746 q 434 639 434 683 q 402 563 434 594 q 326 532 371 532 q 251 563 283 532 q 220 639 220 594 m 234 431 l 425 431 l 425 249 l 394 249 q 267 214 314 249 q 220 122 220 179 q 254 38 220 72 q 339 4 288 4 q 408 35 381 4 q 438 123 434 66 l 627 123 l 627 109 q 543 -76 627 14 q 320 -167 460 -167 q 113 -84 197 -167 q 29 120 29 -1 q 90 293 29 226 q 234 385 151 359 l 234 431 "},"ý":{"x_min":35,"x_max":714,"ha":737,"o":"m 35 583 l 220 583 l 387 243 l 535 583 l 714 583 l 351 -257 l 171 -257 l 301 42 l 35 583 m 263 672 l 358 875 l 570 875 l 384 672 l 263 672 "},"x":{"x_min":16,"x_max":717,"ha":737,"o":"m 36 583 l 248 583 l 366 436 l 483 583 l 696 583 l 472 303 l 717 0 l 502 0 l 366 170 l 229 0 l 16 0 l 258 304 l 36 583 "},"è":{"x_min":33,"x_max":625,"ha":665,"o":"m 625 250 l 209 250 q 245 159 212 194 q 324 124 279 124 q 449 196 404 124 l 609 143 q 333 -12 520 -12 q 114 71 195 -12 q 33 295 33 154 q 118 508 33 422 q 330 595 204 595 q 540 504 456 595 q 625 277 625 413 l 625 250 m 210 367 l 445 367 q 332 476 420 476 q 249 447 282 476 q 210 367 216 419 m 438 672 l 317 672 l 132 875 l 344 875 l 438 672 "},"º":{"x_min":45,"x_max":436,"ha":478,"o":"m 45 697 q 100 842 45 785 q 241 899 156 899 q 380 841 325 899 q 436 697 436 784 q 380 560 436 617 q 245 503 324 503 q 100 557 156 503 q 45 697 45 611 m 325 700 q 298 766 325 738 q 239 795 272 795 q 181 766 206 795 q 156 700 156 738 q 181 633 156 662 q 240 605 206 605 q 299 633 274 605 q 325 700 325 662 "},"Ø":{"x_min":54,"x_max":970,"ha":1028,"o":"m 891 960 l 970 893 l 849 753 q 937 601 910 682 q 964 451 964 519 q 839 120 964 252 q 527 -11 715 -11 q 423 0 488 -11 q 256 64 358 10 l 134 -77 l 54 -12 l 178 131 q 85 302 106 230 q 65 448 65 375 q 194 770 65 640 q 516 900 324 900 q 625 886 571 900 q 773 823 678 872 l 891 960 m 305 282 l 651 681 q 511 722 579 722 q 334 639 407 722 q 262 439 262 557 q 305 282 262 379 m 721 603 l 379 205 q 517 165 448 165 q 692 240 624 165 q 761 436 761 316 q 742 559 761 512 q 741 563 741 563 l 731 588 q 721 603 725 603 "},"∞":{"x_min":103,"x_max":889,"ha":990,"o":"m 461 571 q 564 689 511 653 q 680 726 616 726 q 829 662 770 726 q 889 489 889 599 q 829 316 889 379 q 680 253 770 253 q 564 288 617 253 q 461 407 512 324 q 368 320 421 350 q 267 291 315 291 q 150 344 198 291 q 103 489 103 397 q 150 634 103 581 q 267 687 198 687 q 368 657 315 687 q 461 571 421 627 m 524 490 q 604 383 581 403 q 682 353 640 353 q 762 392 734 353 q 790 491 790 432 q 759 590 790 555 q 684 626 728 626 q 615 601 650 626 q 524 490 580 577 m 403 492 q 274 587 335 587 q 220 561 243 587 q 198 492 198 536 q 220 420 198 446 q 274 395 242 395 q 322 409 301 395 q 403 492 358 433 "},"÷":{"x_min":86,"x_max":841,"ha":926,"o":"m 461 656 q 400 682 426 656 q 374 745 374 708 q 399 805 374 780 q 461 830 424 830 q 523 804 497 830 q 549 743 549 779 q 523 681 549 706 q 461 656 497 656 m 86 528 l 841 528 l 841 389 l 86 389 l 86 528 m 462 92 q 400 117 426 92 q 375 178 375 142 q 400 240 375 214 q 462 267 426 267 q 524 241 498 267 q 550 179 550 216 q 524 117 550 143 q 462 92 498 92 "},"h":{"x_min":96,"x_max":649,"ha":737,"o":"m 96 905 l 272 905 l 272 516 q 359 574 319 556 q 454 593 400 593 q 597 526 545 593 q 649 343 649 460 l 649 0 l 474 0 l 474 312 q 445 407 474 369 q 374 446 416 446 q 296 401 321 446 q 272 264 272 357 l 272 0 l 96 0 l 96 905 "},".":{"x_min":71,"x_max":288,"ha":361,"o":"m 71 97 q 102 174 71 142 q 179 206 134 206 q 256 174 224 206 q 288 97 288 142 q 256 20 288 52 q 179 -11 224 -11 q 102 20 134 -11 q 71 97 71 52 "},";":{"x_min":39,"x_max":303,"ha":361,"o":"m 86 454 q 117 531 86 499 q 194 563 149 563 q 271 531 239 563 q 303 454 303 499 q 271 377 303 409 q 194 346 239 346 q 117 377 149 346 q 86 454 86 409 m 108 203 l 282 203 l 139 -172 l 39 -172 l 108 203 "},"f":{"x_min":29,"x_max":406,"ha":435,"o":"m 406 884 l 406 717 q 338 743 366 743 q 278 716 301 743 q 256 648 256 690 l 256 583 l 405 583 l 405 425 l 255 425 l 255 0 l 81 0 l 81 425 l 29 425 l 29 583 l 81 583 l 81 654 q 144 855 81 802 q 292 908 207 908 q 406 884 359 908 "},"“":{"x_min":74,"x_max":602,"ha":665,"o":"m 506 896 l 580 839 q 511 698 520 767 l 602 698 l 602 501 l 405 501 l 405 636 q 506 896 405 785 m 173 895 l 250 842 q 178 698 188 768 l 273 698 l 273 501 l 74 501 l 74 647 q 173 895 74 770 "},"A":{"x_min":43,"x_max":911,"ha":956,"o":"m 397 891 l 547 891 l 911 0 l 717 0 l 646 176 l 305 176 l 235 0 l 43 0 l 397 891 m 473 599 l 369 337 l 580 337 l 473 599 "},"6":{"x_min":41,"x_max":692,"ha":737,"o":"m 324 865 l 552 865 l 337 573 q 417 582 381 582 q 610 498 529 582 q 692 299 692 415 q 596 77 692 165 q 353 -11 500 -11 q 129 75 218 -11 q 41 295 41 161 q 85 492 41 391 q 183 669 129 594 l 324 865 m 495 300 q 457 399 495 359 q 365 439 419 439 q 264 398 305 439 q 224 299 224 358 q 264 201 224 241 q 365 162 305 162 q 456 202 418 162 q 495 300 495 243 "},"‘":{"x_min":79,"x_max":278,"ha":361,"o":"m 174 903 l 255 846 q 183 700 189 767 l 278 700 l 278 501 l 79 501 l 79 682 q 174 903 79 782 "},"π":{"x_min":34,"x_max":964,"ha":998,"o":"m 964 487 l 809 487 l 809 0 l 608 0 l 608 487 l 390 487 l 390 0 l 189 0 l 189 487 q 164 488 169 488 q 34 461 117 488 l 34 613 q 202 642 87 642 l 964 642 l 964 487 "},"O":{"x_min":61,"x_max":958,"ha":1028,"o":"m 61 445 q 191 771 61 642 q 501 900 322 900 q 828 770 699 900 q 958 444 958 641 q 829 118 958 248 q 507 -11 701 -11 q 186 117 312 -11 q 61 445 61 246 m 510 722 q 329 644 398 724 q 261 439 261 565 q 330 243 261 321 q 507 165 400 165 q 688 242 619 165 q 757 445 757 319 q 689 644 757 569 q 510 722 621 719 "},"n":{"x_min":96,"x_max":648,"ha":737,"o":"m 270 583 l 270 513 q 455 598 358 598 q 593 529 539 598 q 648 354 648 460 l 648 0 l 472 0 l 472 326 q 444 411 472 376 q 378 446 417 446 q 300 402 330 446 q 270 289 270 358 l 270 0 l 96 0 l 96 583 l 270 583 "},"3":{"x_min":62,"x_max":661,"ha":737,"o":"m 244 618 l 69 618 q 156 808 77 736 q 345 880 235 880 q 551 811 466 880 q 637 645 637 742 q 532 454 637 539 q 630 366 599 412 q 661 257 661 320 q 580 62 661 135 q 366 -11 499 -11 q 162 59 243 -11 q 62 254 81 129 l 241 254 q 363 131 272 131 q 440 163 409 131 q 472 242 472 195 q 434 338 472 301 q 337 375 396 375 l 306 375 l 306 521 l 324 521 q 423 551 386 521 q 461 632 461 582 q 431 709 461 677 q 359 742 402 742 q 244 618 259 742 "},"9":{"x_min":41,"x_max":689,"ha":737,"o":"m 406 0 l 176 0 l 391 293 q 313 286 330 286 q 120 369 199 286 q 41 576 41 453 q 138 791 41 704 q 378 879 235 879 q 602 791 515 879 q 689 563 689 703 q 638 360 689 461 q 552 208 587 258 l 406 0 m 506 565 q 466 663 506 623 q 366 703 426 703 q 276 662 314 703 q 238 565 238 621 q 276 470 238 509 q 369 432 315 432 q 465 471 425 432 q 506 565 506 510 "},"l":{"x_min":90,"x_max":264,"ha":361,"o":"m 90 905 l 264 905 l 264 0 l 90 0 l 90 905 "},"¤":{"x_min":107,"x_max":819,"ha":926,"o":"m 107 718 l 201 815 l 293 723 q 369 763 336 751 q 467 775 402 775 q 554 763 521 775 q 631 723 587 751 l 723 815 l 819 718 l 727 627 q 768 541 759 574 q 778 455 778 509 q 765 359 778 391 q 728 289 753 327 l 819 200 l 723 105 l 632 193 q 554 153 588 165 q 461 142 521 142 q 366 153 398 142 q 293 193 333 165 l 204 105 l 107 200 l 196 290 q 158 369 170 335 q 147 461 147 402 q 158 553 147 521 q 197 627 170 585 l 107 718 m 463 639 q 335 586 389 639 q 282 458 282 533 q 334 330 282 384 q 462 277 387 277 q 590 330 537 277 q 643 458 643 384 q 590 586 643 533 q 463 639 537 639 "},"":{"x_min":27,"x_max":641,"ha":737,"o":"m 638 649 l 464 649 q 432 715 457 690 q 374 741 407 741 q 308 716 337 741 q 279 660 279 691 l 279 583 l 368 583 l 368 426 l 280 426 l 280 0 l 102 0 l 102 426 l 27 426 l 27 583 l 102 583 l 102 695 q 178 843 102 780 q 359 907 254 907 q 553 841 471 907 q 638 649 634 776 m 467 583 l 641 583 l 641 0 l 467 0 l 467 583 "},"∂":{"x_min":30,"x_max":662,"ha":686,"o":"m 256 762 l 164 818 q 265 962 199 914 q 414 1011 332 1011 q 573 943 512 1011 q 662 639 662 844 q 605 296 662 462 q 449 56 549 130 q 240 -17 350 -17 q 88 45 147 -17 q 30 223 30 107 q 88 428 30 330 q 269 584 147 527 q 560 639 390 642 q 509 839 559 774 q 411 888 473 888 q 329 861 364 888 q 256 762 294 834 m 551 514 q 522 514 532 514 q 348 477 429 514 q 226 369 268 439 q 185 229 185 299 q 213 144 185 176 q 280 112 241 112 q 427 189 361 112 q 551 514 523 301 "},"4":{"x_min":17,"x_max":673,"ha":737,"o":"m 415 865 l 591 865 l 591 365 l 673 365 l 673 206 l 591 206 l 591 0 l 401 0 l 401 206 l 17 206 l 17 366 l 415 865 m 398 644 l 176 365 l 400 365 l 400 644 l 398 644 "},"p":{"x_min":86,"x_max":692,"ha":737,"o":"m 259 583 l 259 498 l 261 498 q 340 571 299 548 q 439 595 382 595 q 618 503 544 595 q 692 280 692 411 q 620 74 692 160 q 450 -11 548 -11 q 348 14 389 -11 q 264 94 308 39 l 262 94 l 262 -257 l 86 -257 l 86 583 l 259 583 m 510 282 q 473 380 510 339 q 385 421 436 421 q 300 380 335 421 q 265 282 265 340 q 301 185 265 225 q 391 146 338 146 q 476 183 443 146 q 510 282 510 221 "},"‡":{"x_min":35,"x_max":559,"ha":608,"o":"m 237 539 q 247 562 237 543 q 259 611 256 581 q 194 592 238 608 q 109 577 150 577 q 36 644 36 577 q 53 702 36 685 q 114 719 71 719 q 198 702 158 719 q 262 685 238 685 q 243 772 258 716 q 228 863 228 828 q 302 929 228 929 q 353 911 334 929 q 373 866 373 893 l 373 841 q 353 771 370 821 q 334 686 337 721 q 400 702 353 686 q 491 718 448 718 q 559 646 559 718 q 541 592 559 606 q 475 578 523 578 q 393 594 442 578 q 334 612 344 611 q 356 539 339 580 q 373 468 373 498 q 354 392 373 436 q 336 340 336 349 q 353 274 336 318 q 370 193 370 230 q 353 110 370 150 q 336 60 336 71 q 401 75 356 60 q 480 91 446 91 q 541 76 524 91 q 559 23 559 62 q 540 -31 559 -15 q 480 -48 522 -48 q 399 -31 432 -48 q 334 -14 365 -19 l 335 -39 l 354 -105 q 370 -168 370 -141 q 356 -239 370 -221 q 298 -258 342 -258 q 225 -188 225 -258 q 241 -103 225 -154 q 263 -13 258 -51 q 198 -30 245 -13 q 116 -47 151 -47 l 108 -47 q 35 20 35 -47 q 51 75 35 58 q 107 92 68 92 l 119 90 l 128 90 q 197 76 152 90 q 260 60 242 62 q 250 93 256 75 q 225 205 225 155 q 243 280 225 243 q 262 331 262 316 q 253 363 262 347 q 234 410 245 379 q 224 467 224 442 l 224 477 q 237 539 229 528 "},"à":{"x_min":36,"x_max":643,"ha":733,"o":"m 469 0 l 469 100 l 466 100 q 384 15 425 41 q 281 -11 342 -11 q 107 77 179 -11 q 36 291 36 165 q 112 505 36 416 q 294 595 189 595 q 384 572 344 595 q 469 502 424 550 l 469 583 l 643 583 l 643 0 l 469 0 m 341 421 q 255 379 290 421 q 221 276 221 338 q 253 182 221 218 q 340 147 286 147 q 428 188 391 147 q 465 287 465 229 q 428 381 465 341 q 341 421 391 421 m 472 672 l 351 672 l 166 875 l 378 875 l 472 672 "},"Ü":{"x_min":90,"x_max":786,"ha":882,"o":"m 90 891 l 279 891 l 279 346 q 321 224 279 270 q 431 178 363 178 q 553 224 510 178 q 597 355 597 270 l 597 891 l 786 891 l 786 314 q 746 156 786 238 q 625 31 707 74 q 442 -12 543 -12 q 174 90 259 -12 q 90 304 90 192 l 90 891 m 286 963 q 221 989 247 963 q 195 1054 195 1015 q 221 1118 195 1091 q 286 1146 248 1146 q 351 1118 324 1146 q 378 1054 378 1091 q 351 989 378 1015 q 286 963 324 963 m 592 963 q 527 989 554 963 q 501 1054 501 1015 q 527 1118 501 1091 q 592 1146 554 1146 q 657 1118 630 1146 q 684 1054 684 1091 q 657 989 684 1015 q 592 963 631 963 "},"ó":{"x_min":66,"x_max":669,"ha":737,"o":"m 66 290 q 152 510 66 425 q 373 596 238 596 q 583 508 498 596 q 669 293 669 421 q 583 74 669 161 q 370 -12 498 -12 q 146 79 226 -12 q 66 290 66 171 m 498 290 q 459 393 498 349 q 369 437 420 437 q 276 395 315 437 q 238 296 238 354 q 276 189 238 233 q 369 146 314 146 q 459 188 420 146 q 498 290 498 231 m 263 672 l 358 875 l 570 875 l 384 672 l 263 672 "},"√":{"x_min":14,"x_max":716,"ha":762,"o":"m 716 1267 l 507 -53 l 170 644 l 36 579 l 14 625 l 216 725 l 489 166 l 666 1274 l 716 1267 "}}}
